<svg width="64" height="72" viewBox="0 0 64 72" fill="none" xmlns="http://www.w3.org/2000/svg">
<path d="M1.18802 31.676L31.9139 0.723663L62.188 29.2951L59.4769 32.6284L57.6695 30.8798V70.7237H42.7584H22.4251H5.75249V32.6284L4.35098 34.057L1.18802 31.676Z" fill="#6D3433"/>
<path d="M9.43598 27.517C9.7861 27.0495 10.5904 26.2749 11.0327 25.8487C11.0408 25.8409 11.0489 25.8331 11.057 25.8252C11.162 25.7241 11.2593 25.6264 11.3732 25.512C11.6449 25.239 12.012 24.8702 12.8077 24.1296C13.0277 23.9028 13.2483 23.6765 13.4695 23.451C15.8591 21.0153 18.2946 18.6247 20.7392 16.243C20.7691 16.2119 20.7995 16.1803 20.8302 16.1484C21.4239 15.5319 22.16 14.7675 22.6471 14.3113C23.2664 13.7313 23.6935 13.3436 24.0452 13.0262C25.9874 11.135 27.925 9.23918 29.8394 7.32059C30.4098 6.7489 30.9782 6.17506 31.544 5.59883L31.8845 5.23227L32.2743 5.58931C32.3043 5.61841 32.3344 5.64751 32.3645 5.67659C32.9266 6.22047 33.4906 6.76272 34.056 7.30327C34.3951 7.6079 34.7203 7.89464 35.0218 8.16057C35.4455 8.53424 35.8227 8.86695 36.1262 9.15009C36.8575 9.83225 37.6527 10.6415 38.2432 11.2425C38.3397 11.3408 38.4308 11.4335 38.5152 11.5191C39.0033 11.9767 39.4921 12.4338 39.9809 12.8906C40.0085 12.9263 40.0362 12.9624 40.0643 12.9991C40.4149 13.4578 40.9201 13.945 41.7151 14.712C42.0614 15.046 42.4626 15.4332 42.9301 15.8941C43.2313 16.191 43.3638 16.3666 43.4721 16.51C43.5039 16.5522 43.5338 16.5917 43.5652 16.6306C43.6726 16.764 43.8172 16.8721 43.9881 16.9998C44.2097 17.1656 44.4756 17.3643 44.7619 17.6942C45.6741 18.7451 46.1702 19.1108 46.5455 19.3875C46.6556 19.4687 46.7553 19.5423 46.8521 19.6231C47.1658 19.8854 47.5631 20.3106 47.8507 20.645C48.0787 20.9101 48.6015 21.3717 49.0093 21.7102C49.1635 21.8381 49.3579 22.0257 49.5869 22.2467C49.8238 22.4754 50.0979 22.7401 50.4027 23.0113C51.1731 23.6964 51.5811 24.062 51.909 24.356C52.0025 24.4398 52.0895 24.5179 52.1766 24.5958C52.4517 24.842 52.789 25.1519 53.1304 25.4656C53.5389 25.841 53.9536 26.222 54.2749 26.506C55.0586 27.2927 55.839 28.0829 56.6193 28.873C57.02 29.2789 57.3618 29.7124 57.567 30.0803C57.772 30.4482 57.8242 30.7198 57.7097 30.8382C57.5952 30.9566 57.322 30.9133 56.9475 30.7206C56.573 30.5277 56.1284 30.2004 55.7094 29.8134C54.8657 29.0334 54.0217 28.2533 53.1816 27.4694C52.1581 26.5146 51.1401 25.554 50.1343 24.5809C49.4307 23.9002 48.7298 23.2166 48.0311 22.5308C47.9592 22.4602 47.8873 22.3896 47.8154 22.3189C47.1962 21.7762 46.5805 21.2319 46.1557 20.8392C45.805 20.515 45.5698 20.2574 45.3684 20.0367C45.2298 19.8849 45.1072 19.7506 44.9739 19.6241C44.9024 19.5562 44.8038 19.4643 44.6849 19.3535C44.1994 18.9009 43.375 18.1323 42.6636 17.389C42.348 17.0592 41.9912 16.6658 41.6505 16.2903C41.1634 15.7533 40.7092 15.2525 40.455 15.0254C40.0087 14.6267 39.5297 14.1353 39.1066 13.7011C38.7029 13.287 38.3499 12.9248 38.1241 12.7445C37.8544 12.5292 37.6531 12.3159 37.3538 11.9988C37.1462 11.7788 36.8914 11.5089 36.5339 11.1537C36.1212 10.7436 35.8413 10.4408 35.6035 10.1835C35.2687 9.8214 35.0168 9.54894 34.5935 9.19234C34.1233 8.79621 33.6439 8.36978 33.2903 8.00914C33.1293 7.84487 32.9392 7.66303 32.7414 7.47383C32.4796 7.22336 32.2042 6.95988 31.9646 6.70704C31.8213 6.55571 31.7039 6.41524 31.6002 6.28604L32.236 6.27774C32.1871 6.31649 32.1397 6.35332 32.094 6.38888C32.0418 6.42941 31.9918 6.46833 31.944 6.50655C31.7843 6.66987 31.6248 6.83332 31.4655 6.99702C31.4433 7.02703 31.4201 7.05876 31.3959 7.09185C31.2744 7.25787 31.1249 7.46193 30.9207 7.6958C30.5976 8.06597 30.2833 8.36074 29.9518 8.6716C29.6937 8.91363 29.425 9.16541 29.1337 9.47031C28.935 9.67822 28.715 9.9211 28.497 10.1618C28.1731 10.5194 27.8532 10.8725 27.613 11.1002C27.523 11.1855 27.4341 11.2475 27.346 11.3087C27.3456 11.309 27.3452 11.3092 27.3447 11.3095C27.3388 11.3136 27.3328 11.3178 27.3268 11.322C26.7736 11.9077 26.2215 12.4946 25.6701 13.082C25.6249 13.1354 25.5791 13.1893 25.5338 13.2428C25.312 13.5037 25.0966 13.7573 24.9691 13.9354C24.831 14.1284 24.4333 14.5642 24.0142 15.0235C23.7397 15.3242 23.4559 15.6352 23.2299 15.8945C23.0978 16.0462 22.9497 16.1676 22.7972 16.2926C22.655 16.4091 22.5089 16.5288 22.3688 16.6788C22.2987 16.754 22.227 16.8392 22.1506 16.9302C22.0833 17.0103 22.0122 17.095 21.9351 17.1811C21.8634 17.2611 21.6881 17.4237 21.4633 17.6324C21.3244 17.7613 21.1666 17.9078 21.0026 18.0632C20.5939 18.4982 20.1848 18.9329 19.7751 19.3669C19.7009 19.4685 19.642 19.5621 19.6037 19.6443C19.5762 19.7033 19.5581 19.7587 19.5395 19.8156C19.5141 19.893 19.4878 19.973 19.4361 20.0681C19.3957 20.1425 19.335 20.2175 19.283 20.2567C19.2588 20.275 19.2366 20.2855 19.2165 20.2951C19.1934 20.306 19.1729 20.3158 19.1548 20.3346C19.1417 20.3482 19.1324 20.3666 19.1209 20.389C19.1025 20.4249 19.0785 20.4715 19.0256 20.5263C18.8285 20.7301 18.5993 20.9566 18.3747 21.1785C18.125 21.4253 17.881 21.6665 17.6928 21.8649C17.4821 22.0871 17.16 22.3824 16.8375 22.6783C16.6125 22.8847 16.3873 23.0915 16.1991 23.274C16.0148 23.4527 15.8367 23.6525 15.6643 23.846C15.4573 24.0783 15.2583 24.3017 15.066 24.4689C15.0271 24.5027 14.9646 24.5307 14.8862 24.5659C14.8306 24.5908 14.7668 24.6196 14.6981 24.6563C14.4717 24.8871 14.2445 25.1172 14.0167 25.3467C14.0112 25.3572 14.0054 25.368 13.9997 25.3788C13.9996 25.379 13.9996 25.3792 13.9995 25.3794C13.8703 25.6247 13.6936 25.9604 13.2897 26.2793C13.187 26.3604 13.108 26.3974 13.0369 26.4307C12.967 26.4634 12.9046 26.4926 12.8347 26.5566C12.7554 26.6292 12.6784 26.7313 12.5944 26.8426C12.4765 26.9989 12.3449 27.1734 12.1737 27.3103C12.162 27.3197 12.1494 27.3297 12.1364 27.3402C12.0126 27.4397 11.8293 27.587 11.6269 27.7138C11.1336 28.1954 10.6384 28.6753 10.1422 29.154C9.31497 29.9519 8.48443 30.7469 7.65415 31.5417C7.25005 31.9282 6.82055 32.2578 6.45712 32.4549C6.09356 32.6519 5.82652 32.7011 5.71118 32.5879C5.59587 32.4747 5.63996 32.2069 5.82998 31.8396C6.02011 31.4725 6.34135 31.0368 6.72009 30.6254C7.33791 29.9547 7.95591 29.2838 8.57538 28.6147C8.60644 28.5782 8.63772 28.5417 8.669 28.5055C8.90168 28.236 9.1001 27.9688 9.29864 27.7014C9.34425 27.64 9.38993 27.5784 9.43598 27.517ZM2.19046 29.3174C2.68162 28.7128 3.75708 27.6743 4.34865 27.103C4.35948 27.0925 4.3703 27.082 4.38113 27.0715C4.52152 26.9359 4.65232 26.8056 4.8055 26.653C5.17078 26.289 5.6643 25.7971 6.7238 24.7999C7.02058 24.4984 7.318 24.1973 7.61607 23.8971C10.8351 20.6543 14.0998 17.457 17.3735 14.2686C17.4139 14.2273 17.4549 14.1854 17.4964 14.143C18.2981 13.324 19.2923 12.3085 19.9414 11.6948C20.7666 10.9144 21.3334 10.3907 21.8 9.96158C24.4008 7.42966 26.997 4.89303 29.57 2.33355C30.2302 1.67679 30.889 1.01843 31.5459 0.358316L31.8874 -2.77496e-06L32.2699 0.346515C32.4197 0.488238 32.5696 0.629868 32.7195 0.7714C33.4813 1.49031 34.2449 2.20761 35.0098 2.92316C35.465 3.32958 35.9005 3.71307 36.3044 4.0687C36.8719 4.56844 37.3771 5.01338 37.7864 5.38932C38.7726 6.29507 39.8575 7.35842 40.6631 8.14808C40.7948 8.27713 40.9191 8.39899 41.0342 8.51154C41.6929 9.11868 42.3523 9.7254 43.0117 10.3318C43.0508 10.3775 43.09 10.4238 43.1298 10.4708C43.6269 11.058 44.3112 11.7022 45.3881 12.7164C45.8571 13.1581 46.4007 13.67 47.0357 14.2778C47.4448 14.6695 47.6331 14.894 47.7869 15.0773C47.8322 15.1313 47.8747 15.1819 47.9187 15.2319C48.0697 15.4035 48.2598 15.5515 48.4844 15.7263C48.7758 15.9532 49.1254 16.2253 49.523 16.6528C50.79 18.015 51.4413 18.5167 51.9339 18.8963C52.0784 19.0076 52.2094 19.1086 52.3382 19.2175C52.7557 19.5708 53.3015 20.1263 53.7015 20.5593C54.0187 20.9026 54.719 21.5199 55.2613 21.9762C55.4663 22.1487 55.7297 22.3968 56.0398 22.689C56.3608 22.9914 56.7321 23.3414 57.1408 23.7036C58.1736 24.6189 58.7212 25.1068 59.1612 25.4991C59.2867 25.6109 59.4035 25.7151 59.5203 25.8191C59.8894 26.1478 60.3434 26.5599 60.803 26.9773C61.3529 27.4767 61.9111 27.9836 62.3416 28.3632C62.4679 28.4858 62.5941 28.6084 62.7204 28.731L63.2425 29.204L62.7898 29.7845C61.948 30.7894 61.1035 31.7923 60.2593 32.795C60.1804 32.8887 60.1007 32.9808 60.0208 33.0708L59.5597 33.662L58.9894 33.1323C58.556 32.6753 58.1802 32.2164 57.9255 31.8278C57.6222 31.3648 57.5148 31.0398 57.6293 30.9214C57.7438 30.803 58.0722 30.8997 58.5449 31.1875C58.9418 31.4292 59.4129 31.7896 59.884 32.2076L59.0227 32.259C59.0945 32.1624 59.1685 32.0657 59.2442 31.9693C60.0538 30.9385 60.8637 29.9075 61.676 28.8787L61.735 29.7751C61.5672 29.6212 61.3994 29.4672 61.2317 29.3132C59.8514 28.0454 58.4764 26.7718 57.1135 25.4855C56.1601 24.5857 55.2093 23.6831 54.2607 22.7781C54.1631 22.685 54.0655 22.5917 53.9679 22.4985C53.1391 21.7721 52.3143 21.0445 51.7421 20.5225C51.2696 20.0914 50.9454 19.7557 50.6677 19.4682C50.4766 19.2704 50.3076 19.0953 50.1274 18.9278C50.0307 18.8378 49.8977 18.7158 49.7374 18.5686C49.0828 17.9677 47.971 16.947 46.9969 15.9733C46.5647 15.5413 46.0723 15.029 45.6022 14.54C44.9301 13.8407 44.3034 13.1886 43.9624 12.8854C43.3637 12.353 42.7095 11.708 42.1315 11.138C41.5802 10.5944 41.098 10.1189 40.7992 9.87458C40.4421 9.58266 40.1659 9.30364 39.7553 8.88889C39.4705 8.60121 39.1209 8.24822 38.6347 7.78015C38.0735 7.23975 37.6884 6.84473 37.361 6.50896C36.9004 6.03641 36.5538 5.68087 35.9899 5.20103C35.3636 4.66801 34.7208 4.09836 34.2383 3.62463C34.0185 3.40885 33.7613 3.16815 33.4937 2.91772C33.1394 2.58618 32.7668 2.23744 32.4384 1.9066C32.1677 1.63395 31.9588 1.39287 31.774 1.17954C31.7262 1.12438 31.68 1.07107 31.6347 1.01955L32.2027 1.01029C32.1918 1.01935 32.181 1.02838 32.1703 1.03738C31.9551 1.25472 31.7401 1.47219 31.5253 1.68991C31.4941 1.72868 31.4614 1.76964 31.4273 1.81235C31.2562 2.02665 31.0457 2.29008 30.7661 2.59733C30.3236 3.08364 29.9048 3.48015 29.4629 3.89833C29.1189 4.22391 28.7609 4.56263 28.367 4.96729C28.0984 5.24322 27.7988 5.5636 27.5018 5.88117C27.0607 6.35282 26.625 6.81856 26.3045 7.12442C26.1843 7.23902 26.0696 7.32612 25.956 7.41224C25.9554 7.4126 25.9549 7.41295 25.9544 7.41331C25.9467 7.41916 25.9389 7.42506 25.9312 7.4309C25.1822 8.20719 24.4342 8.98464 23.6869 9.76267C23.6247 9.83264 23.5618 9.90326 23.4994 9.97322C23.1945 10.3151 22.8983 10.6472 22.7181 10.8767C22.5229 11.1253 21.9817 11.7007 21.4115 12.307C21.038 12.704 20.6519 13.1145 20.3423 13.4552C20.1614 13.6543 19.967 13.8208 19.767 13.992C19.5804 14.1517 19.3888 14.3157 19.1988 14.5143C19.1037 14.6137 19.005 14.7253 18.8997 14.8443C18.8071 14.9491 18.7091 15.0599 18.6039 15.1733C18.5061 15.2787 18.2728 15.4978 17.9736 15.7788C17.7887 15.9525 17.5787 16.1499 17.3599 16.3586C16.806 16.9348 16.2518 17.5107 15.697 18.0859C15.5924 18.217 15.5072 18.3363 15.448 18.4388C15.4055 18.5124 15.3746 18.5803 15.3428 18.65C15.2995 18.7448 15.2547 18.8428 15.1775 18.9627C15.1172 19.0564 15.0332 19.1541 14.9656 19.2086C14.9341 19.2339 14.9063 19.2499 14.8812 19.2643C14.8523 19.2809 14.8266 19.2958 14.8021 19.3208C14.7845 19.3388 14.7704 19.3618 14.753 19.39C14.7252 19.435 14.689 19.4936 14.6175 19.5663C14.3515 19.8372 14.044 20.1399 13.7427 20.4365C13.4077 20.7662 13.0803 21.0886 12.8257 21.3516C12.5405 21.6463 12.1125 22.0447 11.6838 22.4439C11.3847 22.7224 11.0853 23.0013 10.8335 23.2457C10.5868 23.4851 10.3436 23.7482 10.1083 24.0029C9.82573 24.3088 9.55403 24.603 9.30005 24.8301C9.24868 24.876 9.17075 24.919 9.07304 24.973C9.0038 25.0113 8.92422 25.0555 8.83753 25.1096C8.53253 25.4168 8.22674 25.7234 7.92038 26.0293C7.91204 26.0426 7.90342 26.0562 7.89482 26.0698C7.8947 26.0701 7.89458 26.0703 7.89446 26.0705C7.70044 26.379 7.43491 26.801 6.90718 27.2404C6.77302 27.3521 6.67431 27.4083 6.58539 27.4589C6.49806 27.5086 6.41999 27.553 6.32717 27.6393C6.22176 27.7374 6.11388 27.8695 5.99624 28.0136C5.83105 28.2159 5.64654 28.4418 5.42263 28.6301C5.40734 28.6429 5.39087 28.6567 5.37378 28.6711C5.21173 28.8078 4.97184 29.0102 4.71316 29.1918C4.05238 29.8363 3.38971 30.4792 2.72599 31.1208C2.37183 31.4632 2.01732 31.8053 1.66259 32.1471L1.59017 31.1418C2.41201 31.7894 3.23302 32.4382 4.05388 33.0868C4.27413 33.2609 4.48604 33.439 4.68333 33.6155L3.95651 33.67C4.29085 33.3824 4.61549 33.1344 4.90125 32.9514C5.35867 32.6587 5.67846 32.5558 5.7938 32.669C5.90909 32.7821 5.81227 33.1037 5.5284 33.5666C5.35093 33.8559 5.10919 34.1852 4.82798 34.525L4.43551 34.9417L3.9491 34.5909C3.72495 34.4501 3.49521 34.2957 3.26693 34.1322C2.41658 33.5228 1.56598 32.9133 0.716318 32.3027L5.91598e-07 31.786L0.631385 31.1235C0.751644 30.9969 0.871928 30.8702 0.992242 30.7437C1.03493 30.6959 1.07789 30.648 1.12079 30.6005C1.43993 30.2469 1.71869 29.9015 1.99761 29.5559C2.06168 29.4765 2.12587 29.397 2.19046 29.3174ZM6.70271 37.2889C6.78014 37.722 6.74852 38.5572 6.73115 39.0167C6.73086 39.0251 6.73058 39.0335 6.73029 39.0419C6.72618 39.151 6.72511 39.2541 6.72395 39.375C6.72117 39.6631 6.7174 40.0524 6.66804 40.865C6.66986 41.1014 6.67085 41.3379 6.67085 41.5743C6.67084 44.1275 6.60646 46.6806 6.52936 49.2338C6.52976 49.2661 6.53017 49.2989 6.53058 49.332C6.53857 49.9724 6.54846 50.7664 6.52021 51.2654C6.48429 51.8997 6.45095 52.3305 6.42218 52.6844C6.36015 54.7123 6.30471 56.7403 6.2818 58.7682C6.27462 59.4038 6.27069 60.0394 6.27069 60.675C6.27069 61.2603 6.27315 61.8457 6.27777 62.431C6.29462 62.7719 6.31464 63.0959 6.33319 63.3965C6.35926 63.8187 6.3824 64.1947 6.38996 64.5052C6.40815 65.2534 6.37943 66.1021 6.3581 66.7323C6.35461 66.8353 6.35131 66.9326 6.34845 67.0225C6.35902 67.5231 6.37034 68.0237 6.3819 68.5243C6.37547 68.5577 6.36876 68.5913 6.36188 68.6256C6.27605 69.0528 6.27715 69.5779 6.27875 70.4046C6.27894 70.5062 6.27915 70.6125 6.27919 70.7237L5.75249 70.197C6.03495 70.1968 6.34931 70.1977 6.70175 70.2022C7.01825 70.2062 7.18084 70.2402 7.31369 70.268C7.35276 70.2761 7.38941 70.2838 7.4265 70.2899C7.55366 70.3111 7.68769 70.2882 7.84602 70.2612C8.05143 70.2262 8.29787 70.1842 8.62342 70.2222C9.66076 70.3432 10.1179 70.2611 10.4636 70.199C10.565 70.1808 10.657 70.1643 10.7511 70.1552C11.0563 70.1255 11.4911 70.1549 11.8197 70.1952C12.0803 70.2272 12.6016 70.1955 12.997 70.1552C13.1465 70.1399 13.3487 70.1395 13.5868 70.1392C13.8332 70.1388 14.1183 70.1385 14.4233 70.1214C15.1941 70.0781 15.6037 70.0572 15.933 70.0404C16.0269 70.0356 16.1143 70.0313 16.2017 70.0267C16.4777 70.0124 16.8203 70.0006 17.1671 69.9887C17.5822 69.9744 18.0034 69.9599 18.3239 69.9406C19.1547 69.961 19.9855 69.9863 20.8161 70.0116C21.2428 70.0247 21.6522 70.0986 21.9539 70.2204C22.2556 70.3422 22.425 70.5011 22.4251 70.6658C22.4251 70.8305 22.2556 70.9894 21.9539 71.1112C21.6522 71.233 21.2428 71.307 20.8161 71.3201C19.9566 71.3462 19.0968 71.3724 18.2372 71.3932C17.19 71.4186 16.1428 71.4361 15.0956 71.4361C14.3631 71.4361 13.6305 71.4321 12.898 71.4251C12.8226 71.4244 12.7471 71.4236 12.6717 71.4228C12.0563 71.4633 11.4421 71.5002 11.0093 71.5133C10.652 71.5242 10.3915 71.5026 10.1684 71.484C10.0149 71.4713 9.87903 71.46 9.74157 71.4618C9.66776 71.4628 9.56692 71.4653 9.44532 71.4683C8.94881 71.4806 8.10554 71.5014 7.33625 71.4618C6.9949 71.4443 6.59834 71.4097 6.21977 71.3766C6.05891 71.3626 5.90129 71.3488 5.75249 71.3368L5.11783 71.3136L5.13937 70.7237C5.16786 70.3717 5.18679 70.0691 5.17729 69.89C5.15352 69.4425 5.17364 68.9293 5.19145 68.4758C5.20844 68.0432 5.22327 67.6649 5.19584 67.4498C5.16305 67.1927 5.17642 66.9734 5.19621 66.6475C5.20994 66.4214 5.22669 66.144 5.23344 65.7669C5.24123 65.3316 5.2642 65.0236 5.28373 64.7618C5.31123 64.3933 5.33189 64.1161 5.29387 63.7029C5.25162 63.244 5.22473 62.7643 5.23808 62.3865C5.24416 62.2145 5.24268 62.0176 5.24113 61.8128C5.23908 61.5417 5.23696 61.2565 5.25212 60.9961C5.26461 60.7816 5.29658 60.6042 5.32487 60.4473C5.3337 60.3984 5.34212 60.3514 5.34953 60.3059C5.34912 60.135 5.34852 59.9641 5.34758 59.7932C5.34243 59.7655 5.33673 59.7364 5.33085 59.706C5.30135 59.5537 5.26515 59.3664 5.24711 59.1344C5.21857 58.7674 5.23644 58.4453 5.25541 58.1055C5.27018 57.8409 5.2856 57.5657 5.28007 57.2502C5.2763 57.035 5.26323 56.79 5.25029 56.5471C5.23106 56.1864 5.21214 55.8302 5.22416 55.5828C5.22867 55.49 5.24875 55.4103 5.26872 55.3314C5.26884 55.3311 5.26896 55.3307 5.26909 55.3304C5.27044 55.325 5.27177 55.3196 5.27311 55.3143C5.25782 54.7116 5.24095 54.1088 5.22319 53.5061C5.21803 53.4538 5.21294 53.401 5.20793 53.3487C5.18345 53.0932 5.15966 52.8448 5.12589 52.6829C5.08929 52.5074 5.06801 52.0662 5.04557 51.6013C5.03088 51.2968 5.0157 50.9821 4.9954 50.7251C4.98353 50.5749 5.00422 50.4323 5.02555 50.2857C5.04545 50.1489 5.06588 50.0085 5.06083 49.8549C5.0583 49.778 5.04973 49.695 5.04057 49.6063C5.0325 49.5283 5.02395 49.4458 5.01871 49.3594C5.01387 49.2791 5.02513 49.1003 5.03947 48.8711C5.04833 48.7295 5.05833 48.5685 5.06657 48.3996C5.05368 47.9531 5.04132 47.5065 5.02982 47.06C5.01169 46.9668 4.98814 46.886 4.95792 46.822C4.93624 46.7761 4.91032 46.737 4.88382 46.6969C4.84777 46.6422 4.81051 46.5857 4.7808 46.5078C4.75758 46.4469 4.74833 46.3751 4.75797 46.3269C4.76246 46.3044 4.77094 46.2871 4.7786 46.2715C4.78737 46.2536 4.79518 46.2375 4.79496 46.218C4.79478 46.2039 4.78856 46.1892 4.78104 46.1712C4.76902 46.1424 4.75351 46.1049 4.75296 46.0479C4.75091 45.8358 4.75588 45.5947 4.76078 45.3585C4.76622 45.0958 4.77151 44.8391 4.76688 44.6346C4.76169 44.4054 4.78477 44.0789 4.80777 43.7519C4.82382 43.5237 4.83979 43.2952 4.84635 43.0992C4.85277 42.9071 4.84 42.7071 4.82755 42.5134C4.8126 42.2809 4.79816 42.0572 4.81839 41.8672C4.8225 41.8288 4.84752 41.781 4.87882 41.7212C4.901 41.6787 4.92636 41.6299 4.94974 41.5743C4.94974 41.3324 4.95077 41.0904 4.95267 40.8485C4.94928 40.84 4.94583 40.8312 4.9423 40.8224C4.94222 40.8222 4.94213 40.8221 4.94205 40.822C4.86245 40.6233 4.75356 40.3513 4.81852 39.9693C4.83503 39.8722 4.86553 39.8111 4.89298 39.756C4.91994 39.7019 4.94406 39.6536 4.94913 39.5828C4.95488 39.5025 4.93832 39.4076 4.92032 39.3041C4.89505 39.1589 4.86681 38.9966 4.8931 38.8338C4.8949 38.8227 4.89687 38.8108 4.89884 38.7983C4.91754 38.6803 4.94521 38.5056 5.00089 38.3318C5.01576 37.8161 5.03316 37.3003 5.05216 36.7845C5.08384 35.9248 5.11995 35.065 5.15605 34.2054C5.17381 33.7872 5.24964 33.3861 5.37102 33.0904C5.49257 32.7946 5.64878 32.6284 5.81036 32.6284C5.97192 32.6285 6.12803 32.7946 6.24957 33.0904C6.37096 33.3861 6.44677 33.7871 6.46454 34.2054C6.49318 34.8873 6.52186 35.5695 6.54828 36.2516C6.55164 36.2873 6.55489 36.3232 6.55793 36.3589C6.58057 36.6248 6.62604 36.8715 6.67158 37.1184C6.68204 37.1751 6.69252 37.2319 6.70271 37.2889ZM58.6197 35.5391C58.6972 35.9722 58.6655 36.8072 58.6482 37.2665C58.6479 37.2749 58.6476 37.2834 58.6473 37.2918C58.6432 37.4008 58.6421 37.5039 58.641 37.6247C58.6382 37.9128 58.6344 38.3021 58.585 39.1144C58.5869 39.3508 58.5879 39.5872 58.5879 39.8236C58.5879 42.3761 58.5235 44.9287 58.4464 47.4813C58.4468 47.5135 58.4472 47.5463 58.4476 47.5795C58.4556 48.2197 58.4655 49.0136 58.4372 49.5124C58.4013 50.1465 58.368 50.5773 58.3392 50.931C58.2772 52.9585 58.2217 54.986 58.1988 57.0134C58.1916 57.6489 58.1877 58.2844 58.1877 58.9198C58.1877 59.505 58.1902 60.0903 58.1948 60.6754C58.2116 61.0162 58.2317 61.3402 58.2502 61.6406C58.2763 62.0628 58.2994 62.4387 58.307 62.7491C58.3252 63.4971 58.2964 64.3456 58.2751 64.9757C58.2716 65.0787 58.2683 65.1759 58.2655 65.2658C58.276 65.7663 58.2873 66.2668 58.2989 66.7672C58.2925 66.8006 58.2858 66.8343 58.2789 66.8685C58.1931 67.2956 58.1942 67.8206 58.1958 68.6471C58.1965 69.007 58.1972 69.4241 58.191 69.9151C58.187 70.2316 58.153 70.3941 58.1252 70.5269C58.117 70.566 58.1094 70.6026 58.1032 70.6397C58.0986 70.6673 58.0961 70.6952 58.0953 70.7237L58.1102 71.1333L57.6695 71.1494C57.567 71.1464 57.4579 71.165 57.334 71.1861C57.1286 71.2211 56.8823 71.2631 56.5568 71.2251C55.5197 71.1041 55.0627 71.1862 54.717 71.2483C54.6156 71.2666 54.5237 71.283 54.4296 71.2922C54.1245 71.3218 53.6898 71.2924 53.3612 71.2521C53.1007 71.2202 52.5795 71.2518 52.1842 71.2922C52.0348 71.3074 51.8326 71.3078 51.5946 71.3082C51.3482 71.3085 51.0632 71.3089 50.7583 71.326C49.9877 71.3692 49.5781 71.3901 49.2489 71.4069C49.1551 71.4117 49.0676 71.416 48.9803 71.4206C48.7043 71.4349 48.3619 71.4467 48.0151 71.4587C47.6002 71.4729 47.179 71.4874 46.8586 71.5068C46.028 71.4863 45.1974 71.461 44.3669 71.4357C43.9403 71.4226 43.531 71.3487 43.2294 71.227C42.9278 71.1051 42.7584 70.9462 42.7584 70.7815C42.7584 70.6169 42.9278 70.458 43.2294 70.3361C43.531 70.2143 43.9403 70.1403 44.3669 70.1272C45.2263 70.1011 46.0858 70.0749 46.9453 70.0541C47.9922 70.0287 49.0392 70.0113 50.0861 70.0113C50.8185 70.0113 51.5509 70.0152 52.2832 70.0222C52.3586 70.023 52.434 70.0238 52.5094 70.0246C53.1247 69.984 53.7388 69.9471 54.1715 69.934C54.5287 69.9231 54.7891 69.9448 55.0122 69.9633C55.1657 69.976 55.3015 69.9873 55.4389 69.9855C55.5127 69.9845 55.6135 69.982 55.7351 69.979C56.1942 69.9677 56.95 69.949 57.6695 69.9776L56.9234 70.7237C56.9257 70.6653 56.9284 70.6072 56.9313 70.5495C56.9489 70.2082 56.9835 69.8118 57.0165 69.4333C57.0638 68.8921 57.1078 68.3874 57.0943 68.1326C57.0705 67.6852 57.0906 67.1721 57.1085 66.7188C57.1254 66.2863 57.1403 65.9081 57.1129 65.693C57.0801 65.436 57.0934 65.2168 57.1132 64.8909C57.1269 64.6649 57.1437 64.3875 57.1505 64.0105C57.1582 63.5753 57.1812 63.2673 57.2007 63.0056C57.2282 62.6373 57.2489 62.3601 57.2109 61.947C57.1686 61.4882 57.1417 61.0086 57.1551 60.6309C57.1612 60.4589 57.1597 60.2621 57.1581 60.0574C57.1561 59.7863 57.154 59.5012 57.1691 59.2409C57.1816 59.0264 57.2136 58.849 57.2419 58.6922C57.2507 58.6432 57.2591 58.5962 57.2665 58.5507C57.2661 58.3799 57.2655 58.209 57.2646 58.0382C57.2594 58.0105 57.2537 57.9814 57.2479 57.9511C57.2184 57.7987 57.1822 57.6115 57.1641 57.3796C57.1356 57.0126 57.1535 56.6906 57.1724 56.3509C57.1872 56.0864 57.2026 55.8112 57.1971 55.4958C57.1933 55.2807 57.1802 55.0357 57.1673 54.7929C57.1481 54.4323 57.1291 54.0762 57.1412 53.8287C57.1457 53.736 57.1658 53.6563 57.1857 53.5775C57.1859 53.5771 57.186 53.5768 57.1861 53.5764C57.1875 53.5711 57.1888 53.5657 57.1901 53.5603C57.1748 52.9578 57.158 52.3551 57.1402 51.7525C57.135 51.7003 57.1299 51.6475 57.1249 51.5953C57.1005 51.3397 57.0767 51.0915 57.0429 50.9296C57.0063 50.7541 56.985 50.3131 56.9626 49.8482C56.9479 49.5438 56.9327 49.2291 56.9124 48.9722C56.9005 48.822 56.9212 48.6795 56.9426 48.533C56.9625 48.3962 56.9829 48.2558 56.9778 48.1023C56.9753 48.0254 56.9667 47.9423 56.9576 47.8537C56.9495 47.7757 56.941 47.6932 56.9357 47.6068C56.9309 47.5266 56.9421 47.3478 56.9565 47.1187C56.9653 46.9771 56.9753 46.8161 56.9836 46.6472C56.9707 46.2008 56.9583 45.7544 56.9468 45.3079C56.9287 45.2148 56.9052 45.134 56.8749 45.07C56.8532 45.0241 56.8273 44.9851 56.8008 44.9449C56.7648 44.8903 56.7275 44.8338 56.6978 44.7559C56.6746 44.695 56.6653 44.6232 56.675 44.575C56.6795 44.5526 56.6879 44.5353 56.6956 44.5197C56.7044 44.5017 56.7122 44.4857 56.712 44.4662C56.7118 44.4521 56.7056 44.4374 56.698 44.4194C56.686 44.3906 56.6705 44.3532 56.67 44.2962C56.6679 44.0841 56.6729 43.843 56.6778 43.6069C56.6832 43.3443 56.6885 43.0876 56.6839 42.8831C56.6787 42.6541 56.7018 42.3276 56.7248 42.0006C56.7408 41.7725 56.7568 41.5441 56.7634 41.3481C56.7698 41.1561 56.757 40.9561 56.7446 40.7624C56.7296 40.53 56.7152 40.3064 56.7354 40.1164C56.7395 40.078 56.7645 40.0303 56.7958 39.9704C56.818 39.928 56.8434 39.8791 56.8668 39.8236C56.8668 39.5817 56.8678 39.3398 56.8697 39.0979C56.8663 39.0894 56.8628 39.0806 56.8593 39.0718C56.8592 39.0717 56.8591 39.0715 56.8591 39.0714C56.7795 38.8727 56.6706 38.6009 56.7355 38.219C56.752 38.1219 56.7825 38.0608 56.81 38.0057C56.8369 37.9516 56.8611 37.9033 56.8661 37.8326C56.8719 37.7522 56.8553 37.6574 56.8373 37.5539C56.8121 37.4087 56.7838 37.2465 56.8101 37.0838C56.8119 37.0726 56.8139 37.0607 56.8158 37.0482C56.8346 36.9303 56.8622 36.7556 56.9179 36.5818C56.9328 36.0662 56.9502 35.5505 56.9692 35.0349C57.0008 34.1754 57.037 33.3158 57.0731 32.4564C57.0908 32.0383 57.1666 31.6373 57.288 31.3416C57.4096 31.0459 57.5658 30.8798 57.7274 30.8798C57.8889 30.8798 58.045 31.046 58.1666 31.3416C58.288 31.6373 58.3638 32.0382 58.3816 32.4564C58.4102 33.1382 58.4389 33.8202 58.4653 34.5021C58.4687 34.5378 58.4719 34.5737 58.4749 34.6094C58.4976 34.8753 58.5431 35.1219 58.5886 35.3687C58.599 35.4254 58.6095 35.4822 58.6197 35.5391ZM21.4748 61.5375C21.3974 60.6837 21.429 59.0375 21.4464 58.1319C21.4467 58.1153 21.447 58.0987 21.4472 58.0821C21.4514 57.8671 21.4524 57.6638 21.4536 57.4256C21.4564 56.8576 21.4601 56.0903 21.5095 54.4886C21.5077 54.0226 21.5067 53.5566 21.5067 53.0906C21.5067 48.058 21.5711 43.0255 21.6482 37.9929C21.6478 37.9294 21.6474 37.8647 21.647 37.7994C21.639 36.5372 21.6291 34.972 21.6573 33.9885C21.6933 32.7382 21.7266 31.889 21.7554 31.1916C21.7775 29.7658 21.7988 28.34 21.818 26.9141L21.807 26.3186L22.4251 26.3071C24.9965 26.3419 27.568 26.3701 30.1394 26.3848C31.3922 26.392 32.6452 26.3959 33.898 26.3959C35.0516 26.3959 36.2056 26.3935 37.3592 26.3889C38.0311 26.372 38.6698 26.352 39.2621 26.3334C40.0945 26.3074 40.8355 26.2842 41.4476 26.2767C41.8731 26.2714 42.315 26.2701 42.7584 26.2713L43.3891 26.2596L43.4012 26.9141C43.3981 28.0075 43.3792 29.1093 43.364 29.9932C43.3605 30.1962 43.3572 30.3879 43.3544 30.5652C43.3649 31.5518 43.3762 32.5386 43.3878 33.5253C43.3814 33.5911 43.3747 33.6575 43.3678 33.725C43.282 34.567 43.2831 35.6021 43.2846 37.2315C43.2853 37.941 43.2861 38.7634 43.2799 39.7316C43.2759 40.3554 43.2419 40.6759 43.2141 40.9378C43.2059 41.0148 43.1983 41.087 43.1921 41.1601C43.171 41.4108 43.1938 41.675 43.2208 41.987C43.2558 42.3919 43.2978 42.8777 43.2599 43.5194C43.1388 45.5641 43.221 46.465 43.2831 47.1466C43.3013 47.3465 43.3177 47.5277 43.3269 47.7132C43.3565 48.3148 43.3272 49.1718 43.2868 49.8196C43.2549 50.3332 43.2866 51.3608 43.3269 52.1401C43.3421 52.4348 43.3425 52.8333 43.3429 53.3026C43.3433 53.7883 43.3436 54.3503 43.3607 54.9515C43.4039 56.4708 43.4249 57.2782 43.4416 57.9272C43.4464 58.1123 43.4508 58.2846 43.4553 58.4568C43.4697 59.0009 43.4815 59.6761 43.4934 60.3597C43.5077 61.1779 43.5222 62.0082 43.5415 62.6399C43.521 64.2774 43.4957 65.915 43.4704 67.5523C43.4573 68.3934 43.3835 69.2003 43.2617 69.795C43.1398 70.3896 42.9809 70.7236 42.8163 70.7237C42.6516 70.7237 42.4927 70.3896 42.3708 69.795C42.249 69.2003 42.1751 68.3934 42.1619 67.5523C42.1358 65.8581 42.1097 64.1635 42.0888 62.469C42.0635 60.405 42.046 58.3408 42.046 56.2767C42.046 54.8328 42.0499 53.3888 42.057 51.9449C42.0577 51.7963 42.0585 51.6476 42.0593 51.4989C42.0187 50.2859 41.9819 49.0752 41.9687 48.2222C41.9579 47.5179 41.9795 47.0044 41.998 46.5647C42.0107 46.2621 42.022 45.9943 42.0202 45.7234C42.0193 45.5779 42.0168 45.3791 42.0138 45.1394C42.0015 44.1607 41.9807 42.4986 42.0202 40.9822C42.0378 40.3094 42.0724 39.5278 42.1054 38.7815C42.1527 37.7145 42.1967 36.7196 42.1832 36.2172C42.1594 35.3352 42.1795 34.3236 42.1973 33.4297C42.2143 32.5771 42.2292 31.8314 42.2017 31.4073C42.169 30.9006 42.1823 30.4685 42.2021 29.826C42.2158 29.3804 42.2326 28.8335 42.2393 28.0902C42.2435 27.6357 42.2519 27.2516 42.2617 26.9141L42.7584 27.4108C42.4588 27.402 42.196 27.3921 41.9533 27.3829C41.2271 27.3554 40.6807 27.3347 39.8663 27.3728C38.9616 27.415 38.0161 27.4419 37.2715 27.4285C36.9323 27.4225 36.5443 27.4239 36.1407 27.4255C35.6062 27.4275 35.0441 27.4297 34.5309 27.4145C34.108 27.402 33.7584 27.37 33.4491 27.3418C33.3526 27.3329 33.26 27.3245 33.1703 27.3171C32.8335 27.3175 32.4966 27.3181 32.1597 27.319C32.1052 27.3242 32.0479 27.3299 31.988 27.3358C31.6877 27.3653 31.3184 27.4015 30.8613 27.4195C30.1378 27.4481 29.5029 27.4302 28.8332 27.4112C28.3117 27.3964 27.7692 27.381 27.1472 27.3866C26.7231 27.3903 26.2402 27.4034 25.7615 27.4163C25.0505 27.4356 24.3484 27.4545 23.8606 27.4425C23.6778 27.438 23.5207 27.4179 23.3652 27.3979C23.3645 27.3978 23.3638 27.3977 23.3632 27.3975C23.3526 27.3962 23.342 27.3949 23.3314 27.3935C23.0293 27.3974 22.7272 27.4014 22.4251 27.4055L22.9164 26.9141C22.9284 27.8001 22.9411 28.686 22.9544 29.5719C22.9595 29.6749 22.9646 29.7789 22.9696 29.882C22.9941 30.3858 23.0179 30.8753 23.0516 31.1944C23.0883 31.5403 23.1095 32.4099 23.132 33.3264C23.1467 33.9265 23.1618 34.547 23.1821 35.0535C23.194 35.3496 23.1733 35.6305 23.152 35.9195C23.1321 36.1891 23.1117 36.466 23.1167 36.7686C23.1192 36.9202 23.1278 37.0839 23.137 37.2587C23.145 37.4125 23.1536 37.5752 23.1588 37.7454C23.1637 37.9037 23.1524 38.256 23.1381 38.7078C23.1292 38.9871 23.1192 39.3043 23.111 39.6373C23.1239 40.5174 23.1362 41.3977 23.1477 42.2778C23.1659 42.4614 23.1894 42.6207 23.2196 42.7468C23.2413 42.8373 23.2672 42.9144 23.2937 42.9935C23.3298 43.1012 23.367 43.2126 23.3967 43.3662C23.42 43.4862 23.4292 43.6278 23.4196 43.7228C23.4151 43.7671 23.4066 43.8011 23.3989 43.8319C23.3902 43.8673 23.3824 43.8988 23.3826 43.9374C23.3828 43.9651 23.389 43.994 23.3965 44.0296C23.4085 44.0864 23.424 44.1602 23.4246 44.2726C23.4266 44.6907 23.4217 45.1659 23.4168 45.6315C23.4113 46.1492 23.406 46.6553 23.4107 47.0584C23.4159 47.5101 23.3928 48.1536 23.3698 48.7983C23.3537 49.248 23.3377 49.6984 23.3312 50.0848C23.3248 50.4634 23.3375 50.8577 23.35 51.2395C23.3649 51.6978 23.3794 52.1386 23.3592 52.5132C23.355 52.589 23.33 52.683 23.2987 52.8011C23.2765 52.8847 23.2512 52.981 23.2278 53.0906C23.2278 53.5674 23.2268 54.0443 23.2249 54.5212C23.2283 54.538 23.2317 54.5553 23.2352 54.5726C23.2353 54.5729 23.2354 54.5732 23.2355 54.5735C23.3151 54.9651 23.424 55.5011 23.359 56.254C23.3425 56.4455 23.312 56.5659 23.2846 56.6745C23.2576 56.7811 23.2335 56.8764 23.2284 57.0159C23.2227 57.1743 23.2392 57.3613 23.2572 57.5652C23.2825 57.8515 23.3107 58.1713 23.2844 58.4922C23.2826 58.5141 23.2807 58.5377 23.2787 58.5622C23.26 58.7948 23.2323 59.1391 23.1767 59.4818C23.1618 60.4984 23.1444 61.515 23.1254 62.5316C23.0937 64.2261 23.0576 65.921 23.0215 67.6154C23.0037 68.4397 22.9279 69.2303 22.8065 69.8132C22.685 70.3961 22.5288 70.7237 22.3672 70.7237C22.2056 70.7236 22.0495 70.3961 21.928 69.8132C21.8066 69.2302 21.7308 68.4397 21.713 67.6154C21.6844 66.2711 21.6557 64.9265 21.6293 63.5821C21.6259 63.5117 21.6227 63.4409 21.6196 63.3705C21.597 62.8464 21.5515 62.3601 21.506 61.8735C21.4955 61.7618 21.485 61.6498 21.4748 61.5375ZM24.1553 69.7734C24.3161 69.696 24.6262 69.7276 24.7968 69.745C24.7999 69.7453 24.803 69.7456 24.8062 69.7459C24.8466 69.75 24.8849 69.751 24.9298 69.7522C25.0368 69.755 25.1813 69.7588 25.483 69.8081C25.5708 69.8063 25.6586 69.8053 25.7463 69.8053C26.6942 69.8053 27.6421 69.8697 28.59 69.9468C28.602 69.9464 28.6142 69.946 28.6265 69.9456C28.8642 69.9376 29.1591 69.9277 29.3443 69.9559C29.5798 69.9919 29.7397 70.0252 29.8711 70.054C30.624 70.116 31.3769 70.1714 32.1298 70.1944C32.3658 70.2015 32.6018 70.2055 32.8378 70.2055C33.0551 70.2055 33.2724 70.203 33.4897 70.1984C33.6162 70.1815 33.7366 70.1615 33.8481 70.143C34.0049 70.1169 34.1445 70.0937 34.2598 70.0862C34.5375 70.068 34.8526 70.0967 35.0866 70.1181C35.1249 70.1215 35.161 70.1248 35.1944 70.1277C35.3802 70.1171 35.5661 70.1058 35.7519 70.0943C35.7643 70.1007 35.7768 70.1074 35.7895 70.1143C35.9481 70.2001 36.1431 70.199 36.45 70.1974C36.5836 70.1967 36.7385 70.196 36.9209 70.2022C37.0384 70.2062 37.0988 70.2402 37.1481 70.268C37.1626 70.2761 37.1762 70.2838 37.19 70.2899C37.2372 70.3111 37.2869 70.2882 37.3457 70.2612C37.422 70.2262 37.5135 70.1842 37.6343 70.2222C38.0195 70.3432 38.1892 70.2611 38.3175 70.199C38.3552 70.1808 38.3893 70.1643 38.4243 70.1552C38.5376 70.1255 38.699 70.1549 38.821 70.1952C38.9177 70.2272 39.1113 70.1955 39.2581 70.1552C39.3136 70.1399 39.3887 70.1395 39.4771 70.1392C39.5685 70.1388 39.6744 70.1385 39.7876 70.1214C40.0738 70.0781 40.2259 70.0572 40.3481 70.0404C40.383 70.0356 40.4154 70.0313 40.4479 70.0267C40.5504 70.0124 40.6775 70.0006 40.8063 69.9887C40.9604 69.9744 41.1168 69.9599 41.2358 69.9406C41.5442 69.961 41.8527 69.9863 42.1611 70.0116C42.3195 70.0247 42.4715 70.0986 42.5835 70.2204C42.6955 70.3422 42.7584 70.5011 42.7584 70.6658C42.7584 70.8305 42.6955 70.9894 42.5835 71.1112C42.4715 71.233 42.3195 71.307 42.1611 71.3201C41.8419 71.3462 41.5227 71.3724 41.2036 71.3932C40.8148 71.4186 40.426 71.4361 40.0372 71.4361C39.7653 71.4361 39.4933 71.4321 39.2213 71.4251C39.1933 71.4244 39.1653 71.4236 39.1373 71.4228C38.9088 71.4633 38.6808 71.5002 38.5201 71.5133C38.3875 71.5242 38.2908 71.5026 38.2079 71.484C38.1509 71.4713 38.1005 71.46 38.0495 71.4618C38.0221 71.4628 37.9846 71.4653 37.9395 71.4683C37.7551 71.4806 37.4421 71.5014 37.1565 71.4618C37.0297 71.4443 36.8825 71.4097 36.7419 71.3766C36.541 71.3294 36.3536 71.2853 36.2589 71.2989C36.0928 71.3226 35.9023 71.3025 35.7339 71.2847C35.5733 71.2677 35.4329 71.2529 35.353 71.2803C35.2575 71.3131 35.1761 71.2997 35.0551 71.2799C34.9712 71.2662 34.8682 71.2495 34.7282 71.2427C34.5666 71.2349 34.4522 71.212 34.355 71.1924C34.2182 71.1649 34.1153 71.1443 33.9619 71.1823C33.7915 71.2245 33.6134 71.2514 33.4732 71.2381C33.4093 71.232 33.3362 71.2335 33.2602 71.235C33.1595 71.2371 33.0536 71.2392 32.957 71.224C32.8773 71.2115 32.8115 71.1796 32.7532 71.1513C32.735 71.1425 32.7176 71.134 32.7007 71.1266C32.6373 71.127 32.5738 71.1276 32.5104 71.1286C32.5001 71.1337 32.4893 71.1394 32.478 71.1453C32.4214 71.1748 32.3519 71.211 32.2658 71.229C32.1295 71.2576 32.0099 71.2397 31.8838 71.2207C31.7856 71.206 31.6834 71.1906 31.5662 71.1961C31.4863 71.1999 31.3954 71.2129 31.3052 71.2259C31.1713 71.2451 31.0391 71.264 30.9472 71.252C30.9128 71.2475 30.8832 71.2274 30.8539 71.2074C30.8537 71.2073 30.8536 71.2072 30.8535 71.2071C30.8515 71.2057 30.8495 71.2044 30.8475 71.203C30.6237 71.2183 30.3999 71.2352 30.1762 71.253C30.1568 71.2581 30.1372 71.2632 30.1178 71.2682C30.0229 71.2927 29.9307 71.3165 29.8706 71.3503C29.8054 71.3869 29.6416 71.4081 29.469 71.4306C29.356 71.4453 29.2391 71.4604 29.1437 71.4808C29.0879 71.4926 29.035 71.4719 28.9806 71.4506C28.9298 71.4307 28.8776 71.4103 28.8206 71.4153C28.7921 71.4179 28.7613 71.4264 28.7283 71.4356C28.6994 71.4437 28.6687 71.4522 28.6367 71.4574C28.6069 71.4623 28.5405 71.451 28.4554 71.4367C28.4028 71.4278 28.343 71.4178 28.2803 71.4096C28.1145 71.4225 27.9487 71.4348 27.783 71.4463C27.7484 71.4645 27.7184 71.488 27.6946 71.5182C27.6776 71.5399 27.6631 71.5658 27.6482 71.5923C27.6279 71.6284 27.6069 71.6656 27.578 71.6954C27.5554 71.7186 27.5287 71.7278 27.5108 71.7182C27.5025 71.7137 27.4961 71.7052 27.4902 71.6976C27.4836 71.6888 27.4776 71.681 27.4704 71.6812C27.4652 71.6814 27.4597 71.6876 27.453 71.6951C27.4423 71.7071 27.4284 71.7226 27.4072 71.7232C27.3285 71.7252 27.239 71.7203 27.1513 71.7154C27.0538 71.7099 26.9584 71.7046 26.8825 71.7093C26.7974 71.7145 26.6762 71.6914 26.5548 71.6684C26.4701 71.6523 26.3853 71.6364 26.3125 71.6298C26.2412 71.6234 26.1669 71.6361 26.095 71.6486C26.0087 71.6636 25.9256 71.678 25.8551 71.6578C25.8408 71.6536 25.8231 71.6286 25.8009 71.5973C25.7851 71.5751 25.767 71.5498 25.7463 71.5264C25.6565 71.5264 25.5667 71.5254 25.4769 71.5235C25.4737 71.5269 25.4704 71.5303 25.4672 71.5339C25.4671 71.5339 25.4671 71.534 25.467 71.5341C25.3933 71.6137 25.2923 71.7226 25.1505 71.6576C25.1144 71.6411 25.0917 71.6106 25.0713 71.5832C25.0512 71.5562 25.0333 71.5321 25.007 71.527C24.9771 71.5213 24.9419 71.5378 24.9035 71.5558C24.8496 71.5811 24.7893 71.6093 24.7289 71.583C24.7248 71.5813 24.7203 71.5793 24.7157 71.5773C24.6719 71.5586 24.6071 71.5309 24.5425 71.4753C24.351 71.4604 24.1595 71.443 23.9681 71.424C23.6489 71.3923 23.3297 71.3562 23.0105 71.3201C22.8553 71.3023 22.7063 71.2265 22.5966 71.1051C22.4868 70.9836 22.4251 70.8274 22.4251 70.6658C22.4251 70.5042 22.4868 70.3481 22.5966 70.2266C22.7063 70.1052 22.8552 70.0294 23.0105 70.0116C23.2637 69.983 23.517 69.9543 23.7702 69.9279C23.7835 69.9245 23.7968 69.9213 23.8101 69.9182C23.9088 69.8956 24.0004 69.8501 24.092 69.8046C24.1131 69.7941 24.1342 69.7836 24.1553 69.7734ZM26.5382 36.2481C26.6157 36.673 26.584 37.4924 26.5667 37.9431C26.5664 37.9514 26.5661 37.9596 26.5658 37.9679C26.5617 38.0749 26.5606 38.1761 26.5595 38.2946C26.5567 38.5773 26.5529 38.9592 26.5036 39.7564C26.5054 39.9883 26.5064 40.2203 26.5064 40.4522C26.5064 41.8126 26.4874 43.1729 26.4577 44.5332L25.588 43.6635C26.7325 43.6885 27.8769 43.7211 29.0213 43.7563C29.053 43.7559 29.0851 43.7555 29.1177 43.7551C29.7459 43.7471 30.5249 43.7372 31.0144 43.7655C31.6366 43.8014 32.0593 43.8347 32.4064 43.8635C34.3959 43.9255 36.3854 43.981 38.3749 44.0039C38.7817 44.0086 39.1886 44.0119 39.5954 44.0136L39.0758 44.5332C39.0767 44.3165 39.0772 44.0998 39.0772 43.8831C39.0772 43.3089 39.0748 42.7345 39.0701 42.1604C39.0533 41.826 39.0333 41.5081 39.0147 41.2132C38.9887 40.799 38.9655 40.4302 38.958 40.1255C38.9398 39.3915 38.9685 38.5589 38.9898 37.9406C38.9933 37.8396 38.9966 37.7442 38.9995 37.656C38.9889 37.1649 38.9776 36.6737 38.966 36.1827C38.9724 36.1499 38.9792 36.1169 38.986 36.0833C39.0719 35.6642 39.0708 35.149 39.0692 34.3381C39.0685 33.9849 39.0677 33.5756 39.0739 33.0937C39.0779 32.7832 39.112 32.6237 39.1397 32.4934C39.1479 32.4551 39.1555 32.4191 39.1617 32.3827C39.1828 32.258 39.16 32.1265 39.133 31.9712C39.1175 31.8818 39.1006 31.7845 39.0899 31.676L39.5954 32.1816C39.4593 32.195 39.3056 32.1987 39.1279 32.1775C38.1102 32.0565 37.6618 32.1386 37.3226 32.2007C37.2231 32.2189 37.1329 32.2354 37.0406 32.2445C36.7412 32.2742 36.3146 32.2448 35.9922 32.2045C35.7366 32.1725 35.2251 32.2042 34.8373 32.2445C34.6906 32.2598 34.4923 32.2602 34.2587 32.2605C34.0169 32.2609 33.7372 32.2613 33.438 32.2784C32.6818 32.3216 32.28 32.3425 31.957 32.3593C31.8649 32.3641 31.7791 32.3684 31.6934 32.373C31.4226 32.3873 31.0865 32.3991 30.7463 32.411C30.3391 32.4253 29.9258 32.4398 29.6114 32.4591C28.7964 32.4387 27.9813 32.4134 27.1664 32.3881C26.7478 32.375 26.3462 32.3011 26.0502 32.1794C25.7543 32.0575 25.588 31.8986 25.588 31.7339C25.588 31.5692 25.7543 31.4103 26.0502 31.2885C26.3462 31.1667 26.7478 31.0927 27.1664 31.0796C28.0097 31.0535 28.8531 31.0273 29.6964 31.0065C30.7238 30.9811 31.7511 30.9636 32.7784 30.9636C33.4971 30.9636 34.2158 30.9676 34.9344 30.9746C35.0084 30.9753 35.0824 30.9761 35.1564 30.9769C35.7601 30.9364 36.3627 30.8995 36.7873 30.8864C37.1378 30.8755 37.3934 30.8971 37.6122 30.9157C37.7628 30.9284 37.8961 30.9397 38.031 30.9379C38.1034 30.9369 38.2023 30.9344 38.3216 30.9314C38.6395 30.9234 39.1024 30.9117 39.5954 30.9156L40.3831 30.9449L40.3559 31.676C40.3538 31.9383 40.3473 32.2092 40.3336 32.4713C40.316 32.8062 40.2814 33.1952 40.2484 33.5666C40.2011 34.0976 40.1571 34.5929 40.1706 34.8429C40.1944 35.2819 40.1743 35.7854 40.1565 36.2302C40.1395 36.6546 40.1246 37.0257 40.1521 37.2368C40.1849 37.489 40.1715 37.7041 40.1517 38.0239C40.138 38.2456 40.1212 38.5178 40.1145 38.8878C40.1067 39.3148 40.0837 39.617 40.0642 39.8738C40.0367 40.2353 40.016 40.5072 40.054 40.9126C40.0963 41.3628 40.1232 41.8334 40.1098 42.204C40.1038 42.3728 40.1052 42.5659 40.1068 42.7668C40.1088 43.0328 40.111 43.3126 40.0958 43.568C40.0833 43.7785 40.0513 43.9525 40.023 44.1065C40.0142 44.1545 40.0058 44.2006 39.9984 44.2452C39.9986 44.3412 39.9989 44.4372 39.9993 44.5332L39.9837 44.9515L39.5954 44.9371C39.5238 44.9374 39.4521 44.9377 39.3804 44.9381C39.3533 44.9432 39.3247 44.9489 39.295 44.9548C39.1455 44.9843 38.9617 45.0205 38.7342 45.0386C38.3741 45.0671 38.0581 45.0492 37.7248 45.0303C37.4652 45.0155 37.1952 45.0001 36.8856 45.0056C36.6746 45.0094 36.4342 45.0224 36.196 45.0354C35.8421 45.0546 35.4927 45.0735 35.2499 45.0615C35.1589 45.057 35.0807 45.0369 35.0033 45.017C35.0029 45.0168 35.0026 45.0167 35.0023 45.0166C34.997 45.0152 34.9917 45.0139 34.9865 45.0126C34.3952 45.0279 33.8038 45.0447 33.2126 45.0625C33.1613 45.0676 33.1095 45.0727 33.0582 45.0777C32.8075 45.1022 32.5639 45.126 32.405 45.1598C32.2329 45.1964 31.8 45.2177 31.3439 45.2401C31.0452 45.2548 30.7364 45.27 30.4843 45.2903C30.337 45.3021 30.1971 45.2815 30.0533 45.2601C29.9191 45.2402 29.7813 45.2198 29.6307 45.2248C29.5552 45.2274 29.4737 45.2359 29.3868 45.2451C29.3102 45.2532 29.2293 45.2617 29.1445 45.267C29.0658 45.2718 28.8904 45.2605 28.6655 45.2462C28.5265 45.2373 28.3686 45.2273 28.2029 45.2191C27.7649 45.232 27.3268 45.2444 26.8887 45.2559C26.7973 45.274 26.718 45.2975 26.6553 45.3278C26.6102 45.3494 26.5719 45.3754 26.5325 45.4019C26.4789 45.4379 26.4234 45.4752 26.347 45.5049C26.2873 45.5281 26.2168 45.5373 26.1695 45.5277C26.1475 45.5232 26.1305 45.5147 26.1152 45.5071C26.0976 45.4983 26.0819 45.4905 26.0627 45.4907C26.0489 45.4909 26.0345 45.4971 26.0168 45.5046C25.9886 45.5167 25.9518 45.5322 25.8959 45.5327C25.7984 45.5337 25.6946 45.5331 25.588 45.5317L24.5538 45.4932L24.5895 44.5332C24.5911 44.4123 24.5937 44.2878 24.5963 44.1647C24.6018 43.907 24.607 43.6552 24.6024 43.4545C24.5972 43.2297 24.6203 42.9094 24.6433 42.5885C24.6594 42.3647 24.6753 42.1405 24.6819 41.9482C24.6883 41.7598 24.6755 41.5636 24.6631 41.3735C24.6481 41.1454 24.6337 40.926 24.6539 40.7396C24.658 40.7019 24.6831 40.6551 24.7144 40.5963C24.7365 40.5547 24.7619 40.5068 24.7853 40.4522C24.7853 40.2149 24.7863 39.9775 24.7882 39.7402C24.7848 39.7318 24.7814 39.7232 24.7778 39.7146C24.7777 39.7145 24.7777 39.7143 24.7776 39.7142C24.698 39.5192 24.5891 39.2525 24.654 38.8777C24.6706 38.7825 24.7011 38.7225 24.7285 38.6685C24.7555 38.6154 24.7796 38.568 24.7847 38.4986C24.7904 38.4197 24.7739 38.3266 24.7559 38.2251C24.7306 38.0826 24.7023 37.9235 24.7286 37.7638C24.7304 37.7529 24.7324 37.7411 24.7344 37.7289C24.7531 37.6132 24.7807 37.4418 24.8364 37.2713C24.8513 36.7653 24.8687 36.2593 24.8877 35.7533C24.9194 34.9099 24.9555 34.0664 24.9916 33.2231C25.0093 32.8128 25.0852 32.4193 25.2065 32.1292C25.3281 31.8391 25.4843 31.676 25.6459 31.676C25.8074 31.6761 25.9636 31.8391 26.0851 32.1292C26.2065 32.4193 26.2823 32.8128 26.3001 33.2231C26.3287 33.8921 26.3574 34.5614 26.3838 35.2305C26.3872 35.2655 26.3904 35.3008 26.3935 35.3358C26.4161 35.5966 26.4616 35.8387 26.5071 36.0808C26.5176 36.1365 26.528 36.1922 26.5382 36.2481Z" fill="white"/>
</svg>
