<svg width="213" height="101" viewBox="0 0 213 101" fill="none" xmlns="http://www.w3.org/2000/svg">
<path d="M180.322 52.7965C180.751 50.0816 181.561 47.5811 182.752 45.295C183.942 43.0088 185.3 41.0322 186.824 39.3652C188.396 37.6505 190.086 36.2455 191.896 35.15C193.706 34.0546 195.468 33.364 197.183 33.0782C198.898 32.7448 200.469 32.8162 201.898 33.2925C203.375 33.7688 204.566 34.7214 205.47 36.1502C205.47 37.2457 205.209 38.2935 204.685 39.2937C204.208 40.2939 203.661 41.2941 203.041 42.2943C202.47 43.2945 201.922 44.3186 201.398 45.3664C200.922 46.4142 200.684 47.5335 200.684 48.7242C200.684 49.9626 200.946 50.9628 201.47 51.7248C202.041 52.4393 203.018 52.7965 204.399 52.7965C205.542 52.7965 206.637 52.6298 207.685 52.2964C208.781 51.963 209.876 51.7963 210.972 51.7963C211.162 51.7963 211.472 51.8201 211.9 51.8677C212.377 51.8677 212.686 51.8677 212.829 51.8677C212.258 52.6774 211.519 53.368 210.614 53.9396C209.709 54.5111 208.757 55.0112 207.757 55.4399C206.756 55.8209 205.709 56.1067 204.613 56.2972C203.565 56.4877 202.589 56.583 201.684 56.583C200.827 56.583 200.065 56.3925 199.398 56.0114C198.731 55.6304 198.159 55.1303 197.683 54.5111C197.207 53.8919 196.826 53.2013 196.54 52.4393C196.302 51.6296 196.183 50.8437 196.183 50.0816C195.468 50.8913 194.683 51.7487 193.825 52.6536C193.016 53.5109 192.134 54.2968 191.182 55.0112C190.277 55.7257 189.277 56.321 188.181 56.7973C187.133 57.2736 186.038 57.5117 184.895 57.5117C183.656 57.5117 182.585 57.0593 181.68 56.1543C180.775 55.2017 180.322 54.0825 180.322 52.7965ZM185.038 50.5817C185.038 50.9628 185.038 51.3914 185.038 51.8677C185.085 52.344 185.395 52.6536 185.966 52.7965C187.157 52.5107 188.515 51.8915 190.039 50.939C191.563 49.9388 192.992 48.7957 194.325 47.5097C195.659 46.1761 196.778 44.771 197.683 43.2945C198.588 41.7704 199.041 40.3177 199.041 38.9365C199.041 38.8413 199.017 38.6984 198.969 38.5079C198.969 38.2697 198.969 38.103 198.969 38.0078C197.35 38.0078 195.707 38.3412 194.04 39.008C192.373 39.6748 190.872 40.6035 189.539 41.7942C188.205 42.9373 187.11 44.2709 186.252 45.7951C185.443 47.3192 185.038 48.9147 185.038 50.5817Z" fill="#D8D2CD"/>
<path d="M142.743 50.3674C142.743 47.986 143.41 45.6522 144.744 43.366C146.125 41.0798 147.863 39.0556 149.959 37.2933C152.055 35.5311 154.365 34.126 156.889 33.0782C159.413 31.9827 161.819 31.435 164.105 31.435C165.01 31.435 165.867 31.6017 166.677 31.9351C167.487 32.2685 168.344 32.4352 169.249 32.4352H169.677C169.916 31.9113 170.368 30.9825 171.035 29.6489C171.749 28.3153 172.488 26.9103 173.25 25.4338C174.059 23.9573 174.821 22.576 175.536 21.2901C176.25 19.9565 176.774 19.0277 177.108 18.5038C177.631 17.5988 178.346 16.4796 179.251 15.1459C180.156 13.7647 181.037 12.4311 181.894 11.1451C182.799 9.85916 183.585 8.76369 184.252 7.85875C184.919 6.9538 185.3 6.50133 185.395 6.50133L188.181 9.28761C188.181 9.38287 187.991 9.81153 187.61 10.5736C187.276 11.3356 186.824 12.3359 186.252 13.5742C185.681 14.7649 185.014 16.0985 184.252 17.575C183.537 19.0515 182.799 20.528 182.037 22.0045C181.275 23.481 180.537 24.9098 179.822 26.2911C179.156 27.6247 178.56 28.744 178.036 29.6489C176.56 31.8875 175.06 34.1736 173.535 36.5074C172.059 38.7936 170.868 40.9369 169.963 42.9373C169.106 44.8901 168.677 46.6047 168.677 48.0812C168.725 49.5577 169.535 50.5817 171.106 51.1533C173.964 50.6294 176.107 50.415 177.536 50.5103C178.965 50.6056 179.846 50.8675 180.18 51.2962C180.561 51.6772 180.513 52.1535 180.037 52.725C179.56 53.249 178.798 53.7252 177.751 54.1539C176.75 54.5826 175.583 54.8683 174.25 55.0112C172.916 55.1541 171.583 55.0112 170.249 54.5826C168.915 54.1539 167.701 53.368 166.605 52.2249C165.51 51.0818 164.676 49.4387 164.105 47.2954L153.031 56.5115C153.031 56.5115 152.841 56.5592 152.46 56.6544C152.126 56.7497 151.698 56.8449 151.174 56.9402C150.697 57.0354 150.197 57.1307 149.673 57.226C149.149 57.3212 148.721 57.3927 148.387 57.4403H147.959C146.863 57.4403 145.958 57.2498 145.244 56.8687C144.577 56.4401 144.053 55.9162 143.672 55.297C143.291 54.6302 143.029 53.8681 142.886 53.0108C142.791 52.1535 142.743 51.2724 142.743 50.3674ZM147.387 49.5815C147.387 49.8673 147.363 50.2007 147.316 50.5817C147.316 50.9628 147.34 51.32 147.387 51.6534C147.482 51.9392 147.625 52.2011 147.816 52.4393C148.054 52.6774 148.387 52.7965 148.816 52.7965C149.435 52.7965 150.173 52.5822 151.031 52.1535C151.936 51.6772 152.817 51.1295 153.674 50.5103C154.532 49.8911 155.317 49.272 156.032 48.6528C156.794 48.0336 157.342 47.5811 157.675 47.2954C158.008 46.962 158.628 46.3666 159.533 45.5093C160.437 44.6043 161.366 43.6518 162.319 42.6516C163.319 41.6514 164.248 40.7226 165.105 39.8653C165.962 39.008 166.558 38.3888 166.891 38.0078V37.7934C166.891 37.6982 166.891 37.6505 166.891 37.6505C166.939 37.6029 166.963 37.5553 166.963 37.5076C166.963 37.079 166.82 36.7694 166.534 36.5789C166.296 36.3407 165.986 36.1979 165.605 36.1502C165.272 36.055 164.915 36.0312 164.534 36.0788C164.153 36.0788 163.843 36.0788 163.605 36.0788C161.89 36.0788 160.08 36.436 158.175 37.1504C156.27 37.8649 154.508 38.8413 152.888 40.0796C151.317 41.2703 150.007 42.6992 148.959 44.3662C147.911 45.9856 147.387 47.724 147.387 49.5815Z" fill="#D8D2CD"/>
<path d="M118.667 51.4391C118.667 51.2485 118.667 50.8675 118.667 50.296C118.715 49.6768 118.738 49.272 118.738 49.0814C120.263 45.6045 122.215 42.3896 124.597 39.4366C126.978 36.4836 129.669 33.8641 132.67 31.5779C132.765 31.5779 132.908 31.5541 133.099 31.5064C133.337 31.4112 133.503 31.3635 133.599 31.3635C134.885 31.3635 135.932 31.6493 136.742 32.2209C137.599 32.7448 138.266 33.4592 138.743 34.3642C139.266 35.2215 139.624 36.1979 139.814 37.2933C140.005 38.3412 140.1 39.3652 140.1 40.3654C140.1 42.2229 139.671 44.1757 138.814 46.2237C137.957 48.2241 136.79 50.0816 135.313 51.7963C133.884 53.4633 132.241 54.8445 130.384 55.94C128.526 56.9878 126.597 57.5117 124.597 57.5117C122.596 57.5117 121.096 56.9878 120.096 55.94C119.143 54.8445 118.667 53.3442 118.667 51.4391ZM124.24 50.5817C124.24 51.1057 124.454 51.4629 124.883 51.6534C125.311 51.8439 125.74 51.9392 126.169 51.9392C127.359 51.9392 128.502 51.6296 129.598 51.0104C130.741 50.3436 131.741 49.5339 132.598 48.5813C133.503 47.5811 134.218 46.4857 134.742 45.295C135.266 44.1042 135.528 42.9611 135.528 41.8657C135.528 41.3418 135.48 40.7702 135.385 40.151C135.337 39.4842 135.194 38.9127 134.956 38.4364C134.718 37.9125 134.337 37.5077 133.813 37.2219C133.337 36.9361 132.646 36.8885 131.741 37.079C131.074 37.2219 130.312 37.8411 129.455 38.9365C128.598 40.032 127.764 41.318 126.954 42.7944C126.192 44.2233 125.549 45.676 125.025 47.1525C124.502 48.5813 124.24 49.7244 124.24 50.5817Z" fill="#D8D2CD"/>
<path d="M85.8032 50.939C85.8032 50.3198 85.9461 49.6292 86.2319 48.8671C86.5653 48.0574 87.0654 47.5335 87.7322 47.2954C87.8274 47.2477 87.9465 47.2239 88.0894 47.2239C88.2799 47.1763 88.4466 47.1287 88.5895 47.081C88.78 47.0334 88.9467 47.0096 89.0896 47.0096V50.939C89.3754 50.6532 89.804 50.1293 90.3756 49.3672C90.9947 48.6051 91.6139 47.7955 92.2331 46.9381C92.8999 46.0332 93.4953 45.1759 94.0192 44.3662C94.5907 43.5565 94.9717 42.9611 95.1623 42.5801L111.809 10.1449C111.809 10.1449 111.928 10.002 112.166 9.71626C112.451 9.43049 112.761 9.23998 113.094 9.14472C113.476 9.00183 113.88 9.04946 114.309 9.28761C114.738 9.52575 115.143 10.1449 115.524 11.1451L105.379 31.5779V32.4352C106.712 32.6257 107.951 32.9115 109.094 33.2925C110.237 33.6259 111.213 34.126 112.023 34.7928C112.88 35.4596 113.547 36.2931 114.023 37.2933C114.5 38.2459 114.738 39.4128 114.738 40.794C114.738 43.1278 114.119 45.3188 112.88 47.3668C111.689 49.3672 110.142 51.1295 108.236 52.6536C106.331 54.1301 104.212 55.3208 101.878 56.2257C99.5917 57.0831 97.377 57.5117 95.2337 57.5117C94.2811 57.5117 93.2571 57.3927 92.1616 57.1545C91.0662 56.8687 90.0422 56.4639 89.0896 55.94C88.1846 55.3684 87.3988 54.6778 86.732 53.8681C86.1128 53.0108 85.8032 52.0344 85.8032 50.939ZM106.165 36.9361C105.498 36.9361 104.759 37.2457 103.95 37.8649C103.188 38.484 102.426 39.2937 101.664 40.2939C100.902 41.2465 100.163 42.342 99.4488 43.5803C98.7344 44.771 98.0914 45.9618 97.5199 47.1525C96.996 48.3432 96.5673 49.4625 96.2339 50.5103C95.9005 51.5581 95.7338 52.3916 95.7338 53.0108C97.0674 53.0108 98.5677 52.7012 100.235 52.082C101.902 51.4629 103.45 50.6532 104.879 49.653C106.355 48.6051 107.57 47.4144 108.522 46.0808C109.522 44.6996 110.022 43.2707 110.022 41.7942C110.022 40.5083 109.76 39.389 109.237 38.4364C108.713 37.4362 107.689 36.9361 106.165 36.9361Z" fill="#D8D2CD"/>
<path d="M62.227 51.4391C62.227 51.2485 62.227 50.8675 62.227 50.296C62.2746 49.6768 62.2984 49.2719 62.2984 49.0814C63.8225 45.6045 65.7753 42.3896 68.1568 39.4366C70.5382 36.4836 73.2292 33.864 76.2298 31.5779C76.3251 31.5779 76.468 31.554 76.6585 31.5064C76.8966 31.4112 77.0633 31.3635 77.1586 31.3635C78.4446 31.3635 79.4924 31.6493 80.3021 32.2209C81.1594 32.7448 81.8262 33.4592 82.3025 34.3641C82.8264 35.2215 83.1836 36.1979 83.3741 37.2933C83.5647 38.3411 83.6599 39.3652 83.6599 40.3654C83.6599 42.2229 83.2313 44.1757 82.3739 46.2237C81.5166 48.2241 80.3497 50.0816 78.8732 51.7963C77.4444 53.4633 75.8012 54.8445 73.9436 55.94C72.0861 56.9878 70.1572 57.5117 68.1568 57.5117C66.1563 57.5117 64.656 56.9878 63.6558 55.94C62.7033 54.8445 62.227 53.3442 62.227 51.4391ZM67.7995 50.5817C67.7995 51.1057 68.0139 51.4629 68.4425 51.6534C68.8712 51.8439 69.2998 51.9392 69.7285 51.9392C70.9192 51.9392 72.0623 51.6296 73.1578 51.0104C74.3009 50.3436 75.3011 49.5339 76.1584 48.5813C77.0633 47.5811 77.7778 46.4857 78.3017 45.2949C78.8256 44.1042 79.0876 42.9611 79.0876 41.8657C79.0876 41.3418 79.0399 40.7702 78.9447 40.151C78.897 39.4842 78.7542 38.9127 78.516 38.4364C78.2779 37.9125 77.8968 37.5076 77.3729 37.2219C76.8966 36.9361 76.206 36.8885 75.3011 37.079C74.6343 37.2219 73.8722 37.841 73.0149 38.9365C72.1576 40.032 71.3241 41.3179 70.5144 42.7944C69.7523 44.2233 69.1093 45.676 68.5854 47.1525C68.0615 48.5813 67.7995 49.7244 67.7995 50.5817ZM70.5858 27.9343C69.2998 27.9343 68.4663 27.7199 68.0853 27.2913C67.7519 26.815 67.7043 26.2911 67.9424 25.7195C68.2282 25.148 68.6807 24.5764 69.2998 24.0049C69.9666 23.4333 70.6335 23.0285 71.3003 22.7904C71.9671 22.5046 72.5624 22.4808 73.0863 22.7189C73.6102 22.9094 73.8722 23.5048 73.8722 24.505C73.8722 25.5528 73.5626 26.3863 72.9434 27.0055C72.3719 27.6247 71.586 27.9343 70.5858 27.9343ZM82.8026 27.4342C81.5166 27.4342 80.6831 27.2198 80.3021 26.7912C79.9687 26.3149 79.9211 25.791 80.1592 25.2194C80.445 24.6479 80.8974 24.0763 81.5166 23.5048C82.1834 22.9332 82.8502 22.5284 83.517 22.2903C84.1838 22.0045 84.7792 21.9807 85.3031 22.2188C85.827 22.4093 86.089 23.0047 86.089 24.0049C86.089 25.0527 85.7794 25.8862 85.1602 26.5054C84.5887 27.1246 83.8028 27.4342 82.8026 27.4342Z" fill="#D8D2CD"/>
<path d="M16.2176 89.9469C16.2176 87.9465 16.551 86.0414 17.2178 84.2315C17.8846 82.4216 18.7419 80.7069 19.7897 79.0876C20.8376 77.4682 22.0283 75.9202 23.3619 74.4438C24.6955 73.0149 26.0291 71.6575 27.3627 70.3715C27.839 69.8952 28.6011 69.1808 29.6489 68.2282C30.6967 67.3233 31.8875 66.2754 33.2211 65.0847C34.5547 63.9416 35.9597 62.7271 37.4362 61.4411C38.9127 60.2028 40.3416 59.012 41.7228 57.8689C43.0564 56.7259 44.2471 55.7018 45.2949 54.7969C46.3904 53.8919 47.2001 53.2251 47.724 52.7965C47.8669 52.3202 48.1289 51.6058 48.5099 50.6532C48.8909 49.7006 49.3196 48.6051 49.7959 47.3668C50.3198 46.1285 50.8437 44.8425 51.3676 43.5089C51.8915 42.1753 52.3916 40.9131 52.8679 39.7224C53.3918 38.484 53.8443 37.3886 54.2253 36.436C54.654 35.4834 54.9636 34.769 55.1541 34.2927C55.3922 33.7212 55.678 33.1258 56.0114 32.5066C56.3924 31.8398 56.7973 31.2207 57.226 30.6491C57.7022 30.0776 58.2262 29.6013 58.7977 29.2202C59.4169 28.8392 60.0837 28.6487 60.7981 28.6487C60.7981 30.1728 60.5362 31.8636 60.0122 33.7212C59.5359 35.5787 58.9406 37.4124 58.2262 39.2223C57.5117 41.0322 56.7735 42.723 56.0114 44.2947C55.297 45.8665 54.7016 47.1525 54.2253 48.1527C54.3206 48.1527 54.4635 48.1765 54.654 48.2241C54.8921 48.2241 55.0588 48.2241 55.1541 48.2241C56.3924 48.2241 57.5594 48.0574 58.6548 47.724C59.7979 47.3906 60.9886 47.2239 62.227 47.2239C62.608 47.2239 63.0128 47.2477 63.4415 47.2954C63.9178 47.343 64.2274 47.6288 64.3703 48.1527C63.8463 49.2005 63.0367 49.9388 61.9412 50.3674C60.8457 50.7961 59.655 51.1533 58.369 51.4391C57.1307 51.7248 55.94 52.082 54.7969 52.5107C53.7014 52.9394 52.9155 53.6538 52.4393 54.654C52.1535 55.2255 51.701 56.1305 51.0818 57.3688C50.5103 58.5596 49.8435 59.8932 49.0814 61.3697C48.367 62.8938 47.5811 64.4893 46.7238 66.1563C45.9141 67.871 45.1521 69.4904 44.4376 71.0145C43.7232 72.5386 43.0802 73.9198 42.5087 75.1582C41.9371 76.3965 41.5323 77.3015 41.2941 77.873C40.4844 79.5877 39.6271 81.6119 38.7222 83.9457C37.7696 86.2795 36.6503 88.4942 35.3644 90.5899C34.0307 92.7332 32.459 94.5431 30.6491 96.0196C28.8392 97.4961 26.6721 98.2343 24.1478 98.2343C22.9571 98.2343 21.8854 97.9962 20.9328 97.5199C19.9326 97.0912 19.0991 96.4959 18.4323 95.7338C17.7179 94.9717 17.1702 94.0906 16.7891 93.0904C16.4081 92.0902 16.2176 91.0424 16.2176 89.9469ZM19.8612 88.8038C19.8612 89.5183 19.9088 90.2089 20.0041 90.8757C20.0517 91.5425 20.2184 92.1378 20.5042 92.6618C20.7423 93.2333 21.1234 93.6858 21.6473 94.0192C22.1236 94.3526 22.8142 94.5193 23.7191 94.5193C25.4814 94.5193 27.1484 93.8763 28.7201 92.5903C30.2919 91.352 31.7208 89.8517 33.0067 88.0894C34.2451 86.3748 35.3405 84.5649 36.2931 82.6597C37.2457 80.7546 37.9839 79.159 38.5078 77.873C38.8413 77.0633 39.2223 76.0869 39.6509 74.9439C40.0796 73.8484 40.5321 72.6815 41.0084 71.4431C41.4846 70.2048 41.9609 68.9664 42.4372 67.7281C42.9135 66.5374 43.3184 65.4657 43.6518 64.5132C44.0328 63.5606 44.3424 62.7747 44.5805 62.1555C44.8187 61.5364 44.9377 61.203 44.9377 61.1553V59.2978C44.8425 59.3931 44.652 59.5121 44.3662 59.655C44.0804 59.8455 43.7946 60.0361 43.5089 60.2266C43.2231 60.4171 42.9373 60.5838 42.6516 60.7267C42.4134 60.9172 42.2467 61.0601 42.1514 61.1553C41.7704 61.4887 41.1751 62.0365 40.3654 62.7985C39.5081 63.6082 38.5793 64.4893 37.5791 65.4419C36.5313 66.3945 35.4358 67.3947 34.2927 68.4425C33.1496 69.538 32.078 70.562 31.0778 71.5146C30.0299 72.5148 29.1012 73.3959 28.2915 74.158C27.4342 74.9677 26.815 75.563 26.434 75.9441C25.7672 77.0395 25.0527 78.0635 24.2907 79.0161C23.5286 79.9687 22.838 80.9451 22.2188 81.9453C21.552 82.9455 21.0043 83.9933 20.5756 85.0888C20.0993 86.1842 19.8612 87.4226 19.8612 88.8038ZM66.2278 2.28618C66.2278 1.95278 66.3469 1.66701 66.585 1.42886C66.8231 1.14309 67.1089 0.904946 67.4423 0.714431C67.8234 0.476288 68.2044 0.309587 68.5854 0.214329C68.9664 0.0714431 69.276 0 69.5142 0C70.2286 0 70.6573 0.285773 70.8001 0.857318C70.943 1.38123 71.0145 1.90515 71.0145 2.42907C71.0145 3.33401 70.7525 4.11989 70.2286 4.78669C69.7523 5.40586 69.0379 5.71545 68.0853 5.71545C67.6567 5.71545 67.2994 5.62019 67.0137 5.42968C66.7755 5.19153 66.585 4.90576 66.4421 4.57236C66.3469 4.19133 66.2754 3.8103 66.2278 3.42927C66.2278 3.04824 66.2278 2.66721 66.2278 2.28618Z" fill="#D8D2CD"/>
<path d="M0 41.6513C0 40.8893 0.0476288 40.0558 0.142886 39.1508C0.238144 38.1983 0.452473 37.3409 0.785875 36.5789C1.11928 35.8168 1.59556 35.1738 2.21474 34.6499C2.88154 34.126 3.76267 33.864 4.85813 33.864C4.85813 34.4832 4.78669 35.0548 4.6438 35.5787C4.54855 36.1026 4.40566 36.6265 4.21515 37.1504C4.07226 37.6743 3.92937 38.2459 3.78649 38.8651C3.69123 39.4366 3.6436 40.0796 3.6436 40.794C3.6436 42.6039 3.88174 44.2947 4.35803 45.8665C4.83432 47.4382 5.54875 48.8195 6.50133 50.0102C7.50153 51.1533 8.71606 52.0582 10.1449 52.725C11.6214 53.3918 13.3599 53.7252 15.3603 53.7252C16.2176 53.7252 17.2654 53.5347 18.5038 53.1537C19.7421 52.7727 20.9805 52.3202 22.2188 51.7963C23.4572 51.2724 24.6003 50.7484 25.6481 50.2245C26.6959 49.7006 27.4342 49.3196 27.8628 49.0814C28.9107 48.5099 29.7442 47.724 30.3633 46.7238C30.9825 45.676 31.4588 44.5567 31.7922 43.366C32.1256 42.1276 32.3399 40.8893 32.4352 39.6509C32.5304 38.365 32.5781 37.2219 32.5781 36.2217C32.5781 34.6023 32.4114 33.0305 32.078 31.5064C31.7922 29.9347 31.4588 28.3867 31.0778 26.8626C30.7444 25.3385 30.411 23.8144 30.0776 22.2903C29.7918 20.7661 29.6489 19.2182 29.6489 17.6465C30.1728 16.17 30.9825 14.8364 32.078 13.6456C33.2211 12.4073 34.507 11.3595 35.9359 10.5021C37.4124 9.59719 38.9841 8.88276 40.6511 8.35885C42.3182 7.83493 43.9375 7.52534 45.5093 7.43008C46.7953 7.76349 47.7716 8.19214 48.4384 8.71606C49.1053 9.19235 49.5577 9.71626 49.7959 10.2878C50.0816 10.8594 50.1531 11.4071 50.0102 11.931C49.8673 12.4549 49.6292 12.9312 49.2958 13.3599C48.7718 12.2168 48.0812 11.4547 47.2239 11.0737C46.4142 10.6927 45.4855 10.5736 44.4376 10.7165C43.4374 10.8594 42.4134 11.2166 41.3656 11.7881C40.3177 12.3597 39.3175 13.0026 38.365 13.7171C37.4124 14.4315 36.5789 15.1936 35.8645 16.0033C35.15 16.7653 34.6261 17.4321 34.2927 18.0037C34.2927 19.4325 34.4356 20.8376 34.7214 22.2188C35.0548 23.5524 35.3882 24.9098 35.7216 26.2911C36.1026 27.6247 36.436 28.9821 36.7218 30.3633C37.0552 31.6969 37.2219 33.0782 37.2219 34.507C37.2219 37.9363 36.6741 41.0798 35.5787 43.9375C34.5309 46.7476 32.9829 49.1767 30.9349 51.2247C28.9345 53.2251 26.4816 54.7731 23.5762 55.8685C20.7185 56.964 17.5036 57.5117 13.9314 57.5117C11.6929 57.5117 9.69245 57.0593 7.93019 56.1543C6.21555 55.2494 4.76288 54.0586 3.57216 52.5821C2.42907 51.058 1.54793 49.3434 0.928761 47.4382C0.309587 45.5331 0 43.6041 0 41.6513Z" fill="#D8D2CD"/>
<path d="M208.007 64.2831V65.3742H204.357V77.4327H203.041V65.3742H199.372V64.2831H208.007Z" fill="#D8D2CD"/>
<path d="M193.536 77.5644C192.67 77.5644 191.905 77.4139 191.24 77.1129C190.588 76.8119 190.074 76.3918 189.698 75.8525C189.322 75.3132 189.121 74.7112 189.096 74.0466H190.488C190.551 74.6862 190.833 75.2505 191.335 75.7396C191.836 76.2162 192.57 76.4545 193.536 76.4545C194.426 76.4545 195.128 76.2287 195.642 75.7773C196.169 75.3132 196.433 74.7301 196.433 74.0277C196.433 73.4634 196.288 73.0119 196 72.6733C195.711 72.3221 195.354 72.065 194.928 71.902C194.501 71.7264 193.912 71.5383 193.159 71.3376C192.281 71.0993 191.585 70.8673 191.071 70.6416C190.557 70.4158 190.118 70.0647 189.754 69.5881C189.391 69.1115 189.209 68.4657 189.209 67.6505C189.209 66.9732 189.384 66.3713 189.735 65.8445C190.087 65.3052 190.582 64.8851 191.222 64.5841C191.861 64.2831 192.595 64.1326 193.423 64.1326C194.639 64.1326 195.617 64.4336 196.357 65.0356C197.11 65.625 197.542 66.3901 197.655 67.3307H196.226C196.138 66.7914 195.843 66.3148 195.341 65.901C194.84 65.4746 194.163 65.2613 193.31 65.2613C192.52 65.2613 191.861 65.4746 191.335 65.901C190.808 66.3148 190.544 66.8855 190.544 67.6128C190.544 68.1647 190.689 68.6099 190.977 68.9485C191.266 69.2871 191.623 69.5442 192.049 69.7198C192.488 69.8954 193.078 70.0835 193.818 70.2842C194.671 70.5224 195.36 70.7607 195.887 70.999C196.414 71.2248 196.859 71.5759 197.223 72.0525C197.586 72.5291 197.768 73.1687 197.768 73.9713C197.768 74.5858 197.605 75.169 197.279 75.7208C196.953 76.2726 196.47 76.7179 195.831 77.0565C195.191 77.3951 194.426 77.5644 193.536 77.5644Z" fill="#D8D2CD"/>
<path d="M184.894 74.31H178.912L177.765 77.4327H176.372L181.17 64.4525H182.656L187.434 77.4327H186.042L184.894 74.31ZM184.499 73.2189L181.903 66.1079L179.307 73.2189H184.499Z" fill="#D8D2CD"/>
<path d="M175.109 64.2831V65.3742H169.315V70.2841H174.206V71.3752H169.315V77.4327H167.998V64.2831H175.109Z" fill="#D8D2CD"/>
<path d="M164.323 77.4327L158.623 71.3564V77.4327H157.306V64.2831H158.623V70.4346L164.323 64.2831H165.997L159.846 70.8485L166.054 77.4327H164.323Z" fill="#D8D2CD"/>
<path d="M152.653 74.31H146.671L145.523 77.4327H144.131L148.928 64.4525H150.414L155.193 77.4327H153.801L152.653 74.31ZM152.258 73.2189L149.662 66.1079L147.066 73.2189H152.258Z" fill="#D8D2CD"/>
<path d="M136.89 65.3554V70.2654H141.875V71.3565H136.89V76.3416H142.439V77.4327H135.573V64.2643H142.439V65.3554H136.89Z" fill="#D8D2CD"/>
<path d="M131.53 77.4327L128.276 71.9396H125.849V77.4327H124.532V64.2831H128.483C129.95 64.2831 131.06 64.6343 131.812 65.3366C132.577 66.0389 132.96 66.9607 132.96 68.1019C132.96 69.0551 132.684 69.8703 132.132 70.5475C131.593 71.2122 130.79 71.6449 129.724 71.8455L133.11 77.4327H131.53ZM125.849 70.8673H128.501C129.53 70.8673 130.301 70.6165 130.815 70.1148C131.342 69.6132 131.605 68.9422 131.605 68.1019C131.605 67.2366 131.355 66.5719 130.853 66.1079C130.351 65.6313 129.561 65.393 128.483 65.393H125.849V70.8673Z" fill="#D8D2CD"/>
<path d="M119.459 70.6416C120.199 70.7795 120.826 71.1558 121.34 71.7703C121.854 72.3848 122.111 73.0997 122.111 73.9149C122.111 74.5795 121.942 75.1815 121.603 75.7208C121.277 76.2475 120.795 76.6677 120.155 76.9812C119.515 77.2822 118.75 77.4327 117.86 77.4327H113.307V64.2831H117.728C119.058 64.2831 120.067 64.5904 120.757 65.2049C121.459 65.8194 121.81 66.6158 121.81 67.594C121.81 68.4092 121.591 69.0739 121.152 69.5881C120.713 70.0897 120.149 70.4409 119.459 70.6416ZM114.624 70.096H117.691C118.581 70.096 119.264 69.8891 119.741 69.4752C120.23 69.0488 120.475 68.4656 120.475 67.7257C120.475 66.9983 120.23 66.4277 119.741 66.0138C119.264 65.6 118.562 65.393 117.634 65.393H114.624V70.096ZM117.766 76.3228C118.719 76.3228 119.459 76.097 119.986 75.6456C120.525 75.1941 120.795 74.5733 120.795 73.7832C120.795 72.9931 120.512 72.366 119.948 71.902C119.396 71.4254 118.65 71.1871 117.709 71.1871H114.624V76.3228H117.766Z" fill="#D8D2CD"/>
<path d="M104.632 77.4327L102.845 75.6079C102.205 76.3102 101.522 76.8307 100.794 77.1693C100.067 77.4954 99.2454 77.6584 98.3299 77.6584C97.452 77.6584 96.6744 77.4954 95.9972 77.1693C95.32 76.8307 94.7932 76.3604 94.417 75.7584C94.0408 75.1564 93.8526 74.4604 93.8526 73.6703C93.8526 72.7422 94.116 71.9333 94.6428 71.2435C95.1695 70.5538 95.9408 70.0145 96.9566 69.6257C96.5177 69.1366 96.1979 68.6851 95.9972 68.2712C95.7966 67.8448 95.6962 67.3871 95.6962 66.898C95.6962 66.0577 95.9972 65.3805 96.5992 64.8663C97.2012 64.3395 98.0038 64.0762 99.0071 64.0762C99.9477 64.0762 100.713 64.3458 101.302 64.8851C101.892 65.4244 102.168 66.1267 102.13 66.992H100.813C100.826 66.4277 100.65 65.9825 100.286 65.6564C99.9352 65.3303 99.49 65.1673 98.9507 65.1673C98.3738 65.1673 97.9035 65.3303 97.5398 65.6564C97.1886 65.9699 97.0131 66.3775 97.0131 66.8792C97.0131 67.2805 97.1197 67.6693 97.3329 68.0455C97.5586 68.4217 97.9098 68.867 98.3863 69.3812L102.713 73.7644C102.889 73.5261 103.127 73.1498 103.428 72.6356L104.632 70.6227H106.043L104.613 73.0871C104.274 73.6766 103.936 74.2033 103.597 74.6673L106.344 77.4327H104.632ZM98.3299 76.5109C99.0698 76.5109 99.7283 76.3667 100.305 76.0782C100.895 75.7898 101.453 75.3383 101.979 74.7238L97.7844 70.4723C96.0411 71.1119 95.1695 72.1653 95.1695 73.6327C95.1695 74.1845 95.3012 74.6799 95.5645 75.1188C95.8404 75.5452 96.2167 75.8838 96.6933 76.1347C97.1698 76.3855 97.7154 76.5109 98.3299 76.5109Z" fill="#D8D2CD"/>
<path d="M80.0735 64.2831C81.5282 64.2831 82.7761 64.5465 83.817 65.0732C84.858 65.6 85.6543 66.3587 86.2062 67.3495C86.758 68.3402 87.0339 69.5191 87.0339 70.8861C87.0339 72.2406 86.758 73.4132 86.2062 74.404C85.6543 75.3822 84.858 76.1347 83.817 76.6614C82.7761 77.1756 81.5282 77.4327 80.0735 77.4327H76.1794V64.2831H80.0735ZM80.0735 76.3416C81.9045 76.3416 83.2966 75.865 84.2497 74.9119C85.2154 73.9462 85.6982 72.6043 85.6982 70.8861C85.6982 69.1554 85.2154 67.8072 84.2497 66.8415C83.2966 65.8633 81.9045 65.3742 80.0735 65.3742H77.4962V76.3416H80.0735Z" fill="#D8D2CD"/>
<path d="M68.0351 65.3554V70.2654H73.0203V71.3565H68.0351V76.3416H73.5846V77.4327H66.7183V64.2643H73.5846V65.3554H68.0351Z" fill="#D8D2CD"/>
<path d="M61.645 70.6416C62.385 70.7795 63.012 71.1558 63.5262 71.7703C64.0404 72.3848 64.2975 73.0997 64.2975 73.9149C64.2975 74.5795 64.1282 75.1815 63.7896 75.7208C63.4635 76.2475 62.9807 76.6677 62.3411 76.9812C61.7015 77.2822 60.9365 77.4327 60.046 77.4327H55.4935V64.2831H59.9143C61.2437 64.2831 62.2533 64.5904 62.9431 65.2049C63.6454 65.8194 63.9965 66.6158 63.9965 67.594C63.9965 68.4092 63.7771 69.0739 63.3381 69.5881C62.8992 70.0897 62.3348 70.4409 61.645 70.6416ZM56.8104 70.096H59.8767C60.7671 70.096 61.4506 69.8891 61.9272 69.4752C62.4163 69.0488 62.6609 68.4656 62.6609 67.7257C62.6609 66.9983 62.4163 66.4277 61.9272 66.0138C61.4506 65.6 60.7483 65.393 59.8203 65.393H56.8104V70.096ZM59.952 76.3228C60.9051 76.3228 61.645 76.097 62.1718 75.6456C62.7111 75.1941 62.9807 74.5733 62.9807 73.7832C62.9807 72.9931 62.6985 72.366 62.1342 71.902C61.5823 71.4254 60.8361 71.1871 59.8955 71.1871H56.8104V76.3228H59.952Z" fill="#D8D2CD"/>
<path d="M117.524 82.4635C117.674 82.0029 118.326 82.0029 118.476 82.4635L120.133 87.5643C120.2 87.7703 120.392 87.9098 120.608 87.9098H125.972C126.456 87.9098 126.657 88.5296 126.266 88.8143L121.927 91.9668C121.751 92.0941 121.678 92.3198 121.745 92.5258L123.402 97.6266C123.552 98.0873 123.025 98.4704 122.633 98.1857L118.294 95.0332C118.119 94.9059 117.881 94.9059 117.706 95.0332L113.367 98.1857C112.975 98.4704 112.448 98.0873 112.598 97.6266L114.255 92.5258C114.322 92.3198 114.249 92.0941 114.073 91.9668L109.734 88.8143C109.343 88.5296 109.544 87.9098 110.028 87.9098H115.392C115.608 87.9098 115.8 87.7703 115.867 87.5643L117.524 82.4635Z" fill="#D8D2CD"/>
<path d="M137.524 82.4635C137.674 82.0029 138.326 82.0029 138.476 82.4635L140.133 87.5643C140.2 87.7703 140.392 87.9098 140.608 87.9098H145.972C146.456 87.9098 146.657 88.5296 146.266 88.8143L141.927 91.9668C141.751 92.0941 141.678 92.3198 141.745 92.5258L143.402 97.6266C143.552 98.0873 143.025 98.4704 142.633 98.1857L138.294 95.0332C138.119 94.9059 137.881 94.9059 137.706 95.0332L133.367 98.1857C132.975 98.4704 132.448 98.0873 132.598 97.6266L134.255 92.5258C134.322 92.3198 134.249 92.0941 134.073 91.9668L129.734 88.8143C129.343 88.5296 129.544 87.9098 130.028 87.9098H135.392C135.608 87.9098 135.8 87.7703 135.867 87.5643L137.524 82.4635Z" fill="#D8D2CD"/>
<path d="M157.524 82.4635C157.674 82.0029 158.326 82.0029 158.476 82.4635L160.133 87.5643C160.2 87.7703 160.392 87.9098 160.608 87.9098H165.972C166.456 87.9098 166.657 88.5296 166.266 88.8143L161.927 91.9668C161.751 92.0941 161.678 92.3198 161.745 92.5258L163.402 97.6266C163.552 98.0873 163.025 98.4704 162.633 98.1857L158.294 95.0332C158.119 94.9059 157.881 94.9059 157.706 95.0332L153.367 98.1857C152.975 98.4704 152.448 98.0873 152.598 97.6266L154.255 92.5258C154.322 92.3198 154.249 92.0941 154.073 91.9668L149.734 88.8143C149.343 88.5296 149.544 87.9098 150.028 87.9098H155.392C155.608 87.9098 155.8 87.7703 155.867 87.5643L157.524 82.4635Z" fill="#D8D2CD"/>
<path d="M177.524 82.4635C177.674 82.0029 178.326 82.0029 178.476 82.4635L180.133 87.5643C180.2 87.7703 180.392 87.9098 180.608 87.9098H185.972C186.456 87.9098 186.657 88.5296 186.266 88.8143L181.927 91.9668C181.751 92.0941 181.678 92.3198 181.745 92.5258L183.402 97.6266C183.552 98.0873 183.025 98.4704 182.633 98.1857L178.294 95.0332C178.119 94.9059 177.881 94.9059 177.706 95.0332L173.367 98.1857C172.975 98.4704 172.448 98.0873 172.598 97.6266L174.255 92.5258C174.322 92.3198 174.249 92.0941 174.073 91.9668L169.734 88.8143C169.343 88.5296 169.544 87.9098 170.028 87.9098H175.392C175.608 87.9098 175.8 87.7703 175.867 87.5643L177.524 82.4635Z" fill="#D8D2CD"/>
<path d="M197.524 82.4635C197.674 82.0029 198.326 82.0029 198.476 82.4635L200.133 87.5643C200.2 87.7703 200.392 87.9098 200.608 87.9098H205.972C206.456 87.9098 206.657 88.5296 206.266 88.8143L201.927 91.9668C201.751 92.0941 201.678 92.3198 201.745 92.5258L203.402 97.6266C203.552 98.0873 203.025 98.4704 202.633 98.1857L198.294 95.0332C198.119 94.9059 197.881 94.9059 197.706 95.0332L193.367 98.1857C192.975 98.4704 192.448 98.0873 192.598 97.6266L194.255 92.5258C194.322 92.3198 194.249 92.0941 194.073 91.9668L189.734 88.8143C189.343 88.5296 189.544 87.9098 190.028 87.9098H195.392C195.608 87.9098 195.8 87.7703 195.867 87.5643L197.524 82.4635Z" fill="#D8D2CD"/>
</svg>
